/* XPM */
static char *_f98e4889cc84d5fda5833c3e787aa6ai7f8IyynIARCswl8[] = {
/* columns rows colors chars-per-pixel */
"64 64 201 2 ",
"   c #174E14",
".  c #1B5515",
"X  c #15531D",
"o  c #1C551C",
"O  c #1D591C",
"+  c #1C5B14",
"@  c #215B16",
"#  c #21561D",
"$  c #215B1B",
"%  c #23621B",
"&  c #28651F",
"*  c #2A681F",
"=  c #14462F",
"-  c #164E2D",
";  c #194A2D",
":  c #1C5621",
">  c #175820",
",  c #1C5A24",
"<  c #1D5E28",
"1  c #164535",
"2  c #1A4635",
"3  c #154934",
"4  c #1B4A34",
"5  c #15443B",
"6  c #1A453C",
"7  c #15493C",
"8  c #1A4A3C",
"9  c #1D5132",
"0  c #1D513B",
"q  c #1E593D",
"w  c #215623",
"e  c #235C23",
"r  c #255D2A",
"t  c #224D3B",
"y  c #205537",
"u  c #255C35",
"i  c #24543B",
"p  c #265C3E",
"a  c #285E3C",
"s  c #256224",
"d  c #2B6525",
"f  c #2C6925",
"g  c #26642C",
"h  c #2B652C",
"j  c #27692A",
"k  c #2D692C",
"l  c #336C26",
"z  c #30662B",
"x  c #316B2C",
"c  c #35712D",
"v  c #3A722F",
"b  c #3F792F",
"n  c #266432",
"m  c #2B6433",
"M  c #276832",
"N  c #2E6933",
"B  c #26633A",
"V  c #2B633B",
"C  c #2B693C",
"Z  c #306537",
"A  c #326C33",
"S  c #3D6F32",
"D  c #30633A",
"F  c #356D3A",
"G  c #3D6F3C",
"H  c #357234",
"J  c #3A7434",
"K  c #3D7A34",
"L  c #35713B",
"P  c #3D743C",
"I  c #3D7A3C",
"U  c #417535",
"Y  c #437D35",
"T  c #497E36",
"R  c #41743E",
"E  c #437E3B",
"W  c #497D3B",
"Q  c #163F47",
"!  c #163E4C",
"~  c #193F4C",
"^  c #183F50",
"/  c #164344",
"(  c #1A4444",
")  c #164943",
"_  c #1C4943",
"`  c #16424B",
"'  c #1A424D",
"]  c #1C484B",
"[  c #1F5341",
"{  c #164251",
"}  c #1A4151",
"|  c #214B42",
" . c #254F4D",
".. c #235543",
"X. c #295545",
"o. c #265B43",
"O. c #2C5C44",
"+. c #23534B",
"@. c #2B5D4B",
"#. c #305E42",
"$. c #355E4C",
"%. c #335F52",
"&. c #266146",
"*. c #2C6342",
"=. c #2D6249",
"-. c #336342",
";. c #366941",
":. c #3D6E41",
">. c #33624A",
",. c #36684F",
"<. c #3D6C4C",
"1. c #337341",
"2. c #3D7442",
"3. c #3E7942",
"4. c #3E734B",
"5. c #376251",
"6. c #3D6D53",
"7. c #3D6D5A",
"8. c #3C7250",
"9. c #3F705A",
"0. c #416F4D",
"q. c #427543",
"w. c #437B42",
"e. c #487F43",
"r. c #437349",
"t. c #42724A",
"y. c #417149",
"u. c #417449",
"i. c #447548",
"p. c #42714D",
"a. c #42754C",
"s. c #44744E",
"d. c #42734C",
"f. c #447A48",
"g. c #416E57",
"h. c #416E54",
"j. c #416D5F",
"k. c #406F5F",
"l. c #417151",
"z. c #437156",
"x. c #437252",
"c. c #487753",
"v. c #487850",
"b. c #4C7B51",
"n. c #44735C",
"m. c #4F7F59",
"M. c #456D62",
"N. c #458235",
"B. c #4B8336",
"V. c #4F8937",
"C. c #45823A",
"Z. c #4E8738",
"A. c #4D873B",
"S. c #4E863B",
"D. c #4D873D",
"F. c #4C843C",
"G. c #4E8A3A",
"H. c #4D8A3D",
"J. c #4E893D",
"K. c #518537",
"L. c #518837",
"P. c #51873B",
"I. c #52863C",
"U. c #52883A",
"Y. c #50893C",
"T. c #528C3F",
"R. c #53893D",
"E. c #588938",
"W. c #458342",
"Q. c #498140",
"!. c #4C8540",
"~. c #4B8646",
"^. c #4C8543",
"/. c #4F8841",
"(. c #4D8A43",
"). c #4E8945",
"_. c #4D8943",
"`. c #47864F",
"'. c #4C8549",
"]. c #4D8848",
"[. c #4D894A",
"{. c #508541",
"}. c #508746",
"|. c #528643",
" X c #548943",
".X c #548846",
"XX c #528943",
"oX c #588C42",
"OX c #54874E",
"+X c #528649",
"@X c #54884A",
"#X c #528949",
"$X c #4E8154",
"%X c #538552",
"&X c #558756",
"*X c #538055",
"=X c #508058",
"-X c #55855B",
";X c #52805B",
":X c #4B8062",
">X c #538562",
/* pixels */
"' ' { { ^ ^ ~ ' } } } } } } ' ~ ' } | ' ' ' } } ' ' } ^ } ^ } ^ ^ ^ } | ^ ' } } | ^ ^ } ' ' } } } ' } ^ } } | ^ ^ } ^ ^ } } ' ' ",
"` { { { ^ | ' ' } } } } } } ( ' } } ^ ^ ' ' ' ~ } ' } } ^ ^ } | } } } } ~ ~ } ^ } } ^ ' ' } ' } ' ' } } } ^ ^ ^ } } | } } ' ' ' ",
"' ' ' ' } ~ ~ ' ~ ' ' ' ' } ' ~ } ' ' } ' ' ' ' } ' | ^ ' ' } ' } } } } ' ' | ^ ^ } | ' ' ' } } } ' | ^ } ' ' ' } | ^ } ' ' ' ' ",
"' ' ' } ^ ^ | ' ' ~ ' ' ' ^ ^ | ' ' } } ' ' ' ' ' ' ' ~ ' ' ' } } } ^ } ^ } ' ^ ^ ^ ^ ' } ' ' ' ' } } ^ ' ' } ' } } ^ ^ } } ' ' ",
"' | } } } ~ ' ' ~ ~ } } ~ ~ } | ' ' ' ' ' ' ' } } } } ' ' ' ~ ~ ' ' ' ' } } ' ' } } } ' ' ' ' ' ' ' ' ' ' ' ' ' ' ' ' } ' ' } } ",
"^ ^ } | ~ } } } } } } } } } } } ' ' ' ' ~ ' ' ^ ^ } ' ' ' ' | } | ' ' ' ' ' ' ' } } } } ' ' ( ' ' ' ' ' ' ' ' ' ' ' ' ' ' } } } ",
"} } } } } ' } { | ^ ^ ^ } } } } ' ' } ~ ' } ^ ^ } } ' } ' } } } ^ ^ ' ' ' ' ' ' } } ' ' ' ' ' } ' ' } ' ' ^ ^ ' ' ' ' ' } ' ' ^ ",
"~ ~ } ~ } } { ' ' ^ ^ } } } } ~ ' ' ' ( (  .| ' ' ' ' ' ^ } } } } ^ ' ' ' ' ' ' } } ^ ' ' ' } } ^ } } } ^ | } ' ' ' } ' ' ' } } ",
"' } } } { ` ` { ( ) ` ` { { ' ' ' '  .Q h.p.h.2 | ~ ' { } ` { ` | ~ ~ ' ' ' ' ^ ^ } } ' ( ' ^ ^ ^ } } ~ } ' } ^ ' ' ' } ' ' ' ' ",
"' ' ' { { ` ] +.@.i 5 ( ( ' ( } ' ~ Q %.y.q.q.<.6 ( ' ` { } / ( Q ( ( ( ( ' ' | ^ } ' ' ' ' } ^ } ^ } } } } ^ | } ' ' } ' } ' } ",
"' ' { { { ) ` @.*.V *.o.5 ) ' ` { ' 6 h.r.q.q.r.2 Q ` { { / ) 6 $.#.v.i ( } ' ~ } } ' ' ' ' } ^ } } } ' } } } } } ' ' ' } ' ' ' ",
"' ' { ` ` ` ( @.m 2.m V O.7 / ] ! ( X.d.q.R R 0.$._ ' ` ] 5 X.O.a %X@Xm.( } ' ' ^ } } ' ' ' ' ' ' ' ' ~ } ' } } } } } ' ' ' ' ' ",
"' ' ' ' ' ( ( @.m #X~.L m *.1 ) ' 6 d.q.R q.R 0.h.5 ` ` 8 =.m h |.R.F.&X( ~ ' ( ' } ' } ' ' ' ( ' ' ( | ( ' ' ' ^ ' } } ' ' } ' ",
"' ' ' ~ ' ( ( [ m D.XX_.w.V =.5 6 #.i.R R R R q.x.4 5 +.*.m h R.I.E. Xv.( ^ ' ( ' } } { ' ' ' ( ( 6 ' ! ' Q ~ ' } } } ' } ' } ' ",
"^ ' ' ' ' ' ' 6 m W Z.D.).N V y ; h.q.R R R q.u.y.t p O.m A _.D.Z.|.-X2 ' } ( ' } } ' ' ' ' ' ' ( (  .( ' ' ^ | } } } } } } ' ' ",
"} ' ' ' ' ' ' ( a F.Z.XXD.'.m V -.p.q.R R R R q.u.F V m P ).J.Z.P.@X#.( ' ~ ' ' ' ' ( ( ' ' ' ' 6 j.j.j.Q | ~ } ^ ' } ' ' ' } } ",
"' ' } ' } ^ | ( V e.Z.R.R._.q.m F q.2.R q.f.R q.q.m h ^.~.|.I.E.E.b.4 6 ~ } ~ ' ( 5 =.&.7 / ' ( t h.0.s.X.Q ~ ~ { ' ( ` ' ' ' { ",
"' / ' ' } } ' ..m ~.|.I.P.XX|.h h q.q.R 2.J P q.d h W ^.^.oXK.I..Xb.1 ' Q ( ~ Q 6 9.B C o.7 ' ( t 0.R q.g.t Q ~ { ' ' ' ' ' } ^ ",
"{ { } ' } ' 5 o.h ^..X|.P.Z.|.k h 2.2.q.P R q.h z E '.~._.P.P.|.m.t ( ( t g.M.2 4 :XB M *.=./ ( $.r.q.q.z.X.( ~ ' ' ' ' ' ' } } ",
"{ { ' ' ' ( 5 *.k ^.|.F.oXR.~.J n 2.q.R R P k g U +X'.h l U.R..Xm.2 ( Q h.0.g.t 3 6.B n C &...1 0.q.q.q.0.h.| ~ } ' } ' ' } } } ",
"' ' ' ' ' ' 7 V h '.G z F.I. X#Xn N R R I P k k +X@Xm d D.P.K.@Xm.2 6 6 0.s.h.2 5 @.V m ~.N V - q.R R q.q.h.t ~ ~ } ^ ^ ' ' { ' ",
"' ' ' ' ~ ( 8 B A '.k h .XI.I.~.n n R q.I h s ~.^.^.k k R.E.K.@XD ; 2 6.q.y.h.2 5 0 V 3.[.k m 4.q.R R R q.q.$.( | } } ^ } } ' ' ",
"} ' ' ' { / [ B W..Xd A I.K.I.|.h n R I A j K ~.|.h d W.J.P.I..Xm 9 4 i.R q.z.2 5 =.m ~.^.~.m h q.R w.R R q.z.6 ~ } ' | } { ' ' ",
"' ' { ' ' ( &.N |.D.k J I.E.I.{.k M J R g g )._.W.h k W.B.I.I.^.m a 4.q.q.u.<.3 3 *.h ^.).#Xh m R R R R R q.h.t ' } } ~ } { ( ` ",
"' ~ ^ ~ ( 1 V g J.F.d F.I.E.I.{.g g 3.N j W.^.^.d k W.C.D.I.I.|.r A P q.P y.,.8 = V h XXR.).W.n A q.R P R q.d.i ( } ' ~ } } ' ' ",
"~ | } ' ) 0 B w.D.Z.f W.|.I.I.|.A N P g k [.D.^.h J C.C.I.I.R.XXh s q.2.q.y.<.3 y m U R.I.XX~.d k R P I 2.i.:.6.( ~ } ^ ~ ' ( ' ",
"} ~ ~ ' 5 O.a OX^.D.s W.|.oXP.XXW.j L j d ).|.f k W.C.C.I.I.R.^.H N V 2.f.2.8.- V m ).R.Z.J..Xk n P w.R q.:.q.4.t ~ ~ ~ } { ' ( ",
"} ~ { ' 6 *.Z e.|.D.j ~.|.I.F.I.C.P < > E ^..Xd c C.E D.I.E.R.R.[.d h q.P 2.4.V A R ^.R.U.U._.H h 2.R L 2.f.'.a.5 ~ ' | } ' ' ( ",
"} } ' ( 5 &.m +X|.F.j F._.U.I.F.C.W.< X ~.I.'.h K C.Y J.P.U.R. X^.h n 4.2.P n F P ).^.R.L.U.Z.F.h 2.3.3.2.m g $X8 / ( ] } } ' ~ ",
"( ( ( 6 3 *.z .X|.Z.d C.R.U.|.B.N.C.< , ~. Xe.k K N.C.R.V.U.R.|.XX^.N m 2.h N W.C.H.XXU.E.R.I.|.h F 3.P N h h V 9.) ( ' ~ } ^ | ",
"a.d.x.*.- B k e.|.|.h H D.U.XXB.T E , , |.I.q.d C.N.C.R.V.V.U.I.J.XXe r N j E C.G.F.I.P.I.|.I.|.k M L 3.n h 3.m =.7 ' ' ^ } ^ ~ ",
"2.2.q.q.4.n h .XI.|.h k I.I.XXF.N.C., o .X^.w.k E C.N.J.L.J.R.I.U.XXo O h H C.N.G.R.^..XP. XD.W h L 3.3.g k H n C 0 ( } } } } ~ ",
";.4.q.U P h h +XD..Xh h |.I.I.B.N.C., o ).D.~.h E C.B.XX|.K.I.E.U..XX > x N.C.F.J._.x # I.P.~.H g f.P k N k g ~.M =.) { ~ { ' ' ",
"; <.q.P R z h ~.^.D.S x W I. XF.N.F., : ~.D.^.j J N.T Z.I.oXI.R.P.^.> X C.C.E C._.'.: w I.I.~.h n 2.A N h H d ~.g B ) ( { ' ' ' ",
"2 z.4.q.2.A r OX_.R. XI.R.R.P.R.N.C.s o C..X[.d c C.B.J.E.I.R.R.E.|.o < C.Y N.D.^.W . e I.E.~.n h L , h [.I d e.~.B X./ } ^ ' } ",
"t h.4.q.P F h ^.D.P.I.I.|.E.I.I.C.I H . d ~.[.d x E N.L.P.P.R.R.I..X: > I Y B.|.|.@ o ~.F. X|.d h X o f.).x h @X[.g =.) { ^ ^ | ",
"2 g.0.q.P 3.h F |. XL.K.I.oXI.I.^.C.E h O [.^.d x C.N.J.U.P.R.I.I.|.: s F.N.N.XX$ o f I.R.R.~.h o e J '.~.d d I.D.k *.7 { } } { ",
"6 $.0.y.3.3.h k ^.I.E.E.K.R.I.|.D.C.C.E o '.^.v h E J.U.P.P.U.I.|.#Xo H E C.D.^.O o D.I. X X^.o : A ~.D.[.j d .XD.E B 7 ' ! } ' ",
"6 X.0.q.q.P u o R |.E.P.I.R.I.|.Z.F.E F.s h D._.d E Z.R.P.E.U.R.^.f x E T D.#Xo . ~. XI.I. XI , w |.^..XI k K I.I..Xn q ! ^ ' ' ",
"( t r.q.R R q.w o |.I.P.I.I.oXI.J.J.T E J o _.D.^.|.I.R.I.R.U.U. X. K E E ^.O o O ).I.I.I.I.O o E .X|.|.j j XXP.I.^.k &./ | ~ | ",
"~ | p.R w.R 2.w w S |.Z.R.P.E.I.P.R.F.N.E s E R.XXR.|. XI.I.P.P.T.* N.F.^.z : O ~.H.J.R.I.e.o o _. XR.XXj d ^.I.I.#Xg B +.( ( ' ",
"' _ y.R q.q.u.G : : [._.U.L.I.E.P.T.V.B.C.J @ D.J.I.I.I.I.I.I.I.F.Y N.C.+X# o ~.(.H.F.oX@X. # H ^.R.R.v f W.XXI.|..Xg C 7.( ( ' ",
"` ( y.R R G q.q.u > O ~.D.T.E.I.I.Z.B.N.E Y @ l I.I.I.I.E.E.I.|._.N.N.G.d z {. XH.J.XX~.w.# . _.R.P.^.d f (.D.I.F.^.m B g.( ( ~ ",
"' / y.q.q.R q.2.2.> : O )._.F..X|.R.F.N.C.E K d I.I.R.I.E.I.I.D.T N.N.N.f e.|.I.XX|.^.E # O .XXXJ.R.^.d l _.).D.F.E P M g.6 ( ( ",
"' 6 x.R R R i.q.3.f.> X O ).+X|.~..XJ.C.C.C.W.E Z.P.I.I.U.P.I.F.C.T N.N.N.F.T K.P.I.x x   s D.R.U._.x h _.J.F.H.W C.I m 9.6 ' ' ",
"' ( 6.q.R e.P P A j h s d d h d d k F.H.K W.E W.B.L.P.I.I.I.I.Z.F.E C.N.B.P.I.I.I.I.d d |.{.Z.U.T._.h h _.R.C.N.N.C.H V 7.( ( ' ",
"} ` X.y.2.P m m h h j s k k k k h f d s K I W.C.N.B.I.E.I. XU.P.T F.B.|.F.P.I.oX|.I.I.I.R.R.|.|.^.H k E _.D.N.N.N.T k 4.6.6 ' ' ",
"{ ' 4 x.m h h h C.).).).).).'.~.+X|.H f g j P C.N.B.P.R.|.R.P.L.J.D..XD.E.I.|.|.E.I.E.F.U.R.I.|.XXf d ^.C.N.N.N.Y c h <.@.) ' { ",
"` ) 3 *.m g ^.J.J.L.I.R.E.I.~.^..XI.|.XX_.l d J Z.J.U.U.I.R.E.P.R.|.l I.I.I.I.R.I.R.R.R.U.U.|.R.|.v Y C.N.N.C.C.W.k m x.5 ( { { ",
"( 1 *.m A '.#XJ.P.P.I.I.I.I.|.|.I.R.P.I.R.D.XXXXJ.R.U.R.|.|.K.R.I.|.d Y I.I.E.L.|.R.I.I.R.R.I.D.N.C.C.N.N.N.C.C.H N 2.8.( ' ` { ",
"p a d Y ^.|.|.OX^.e.e._..X.XI.I.P.I.I. XB.T.Z.).R.D.I.|.W I.I.R.D.@Xd T ^. XR. XP.P.E.I.R.Z.V.N.N.Y Y N.N.N.F.I k j 3.V 1 ( ' ` ",
"4.V ^.I.E.I.S # o o o # . f I.R.I.E.I.I.J.J.F.d Y I. X|.d W |. X|.F.f ^.E Z.Z.P.E.I.R.|.Z.F.N.N.N.H.N.N.K C.E I I I L m >.8 ' } ",
"4 >X+X|.L.L..X@ O # . o # . d I.L.E.I.I.R.XXj d F.I.|.S s {.I.I.~.e f W C._.R.R.P.P.I.T B.Y N.N.N.N.C.C.W.d w.I K s k n V =.` ` ",
"2 O.m.|.P.B.H.(.|.^.|.|.|.^.W W U.L.I.oX|.l h W.|.I.^.# # ^. XXX'.. K C.D.R.J.U.P.B.B.T E N.N.N.N.N.W.C.H I L N j j c `.n p ) { ",
"~ 2 h.F k (.B.H.R.J.I.|.oXoXI.R.P.P.Z.|.Z r g (.P. Xx # @ D.I._.H o E T Z.I.I.I.F.B.T N.C.C.N.N.N.C.s O , k A d K (.^.|.h V / ` ",
"~ ( 6 a h d C.(.J..XI.|.|.W R.R.E.I.|.|.w w P ^.R.^.# o e.I.R.H.. e Y N.R.I.|.I.F.D.B.C.C.E N.N.N.f X X 2.`.W.j f c  X^.Z *./ { ",
"{ ' ( 4 V d m d A o ^.).^. XI.|.R.^.XX^.: r XXJ.[.o : o _.H.H.% O K N.F.C.XXP.XXP.J.I.C.~.~.|.D.H.K F M M j j s k D.).w.Z 0 ) { ",
"} ' ( O.y.f.F h h o . + $ v  XP.R.XXXX% : h _.XXs o w '.XXH.W.% H E C.C..X^.|.I.P. XF.O $ [.~.~.[.s g h j j W.).(.~.[.m O.5 { ` ",
"} ' 2 p.R ^.[.[.~.k + % f l D.U.J.XX(.+ > m F.XX$ % ^.oX_.W.O X N.N.N.C.I f F.^.R.P.F.@ # . O W.~.[.~.|.[.).^.J.H.[.h V o./ / ` ",
"' _ 0.q.W I.^.H.^._.C.C.C.K B.N.N._.(.+ : h x XX(._.XX^.z O > I C.N.N.C.K l f U XX|.|.E & # . . o # l |.^. X|.|.~.s m p 7 ` ] ( ",
"( t i.W C.N.F.N.C.C.C.C.C.N.N.N.C.E C.W.g k c ~.(.(.d s < > * W.C.N.N.C.C.C.j s J ^..XD..Xd h h g N W._.~.^.x d k h u ; / ( ~ ' ",
"2 p.e.B.N.Y N.N.N.N.G.N.N.N.N.N.K A.N.C.N j W.W.s s k O > < H.K C.C.N.N.Y N.C.c h W.~.^..X#X'.F m m f & d d d h h 2.d.h.X.5 ' ~ ",
"D 2.e.E C.N.N.B.B.N.K C.C.C.C.E N.C.N.A.N n M g s d (.(.W.C.C.N.C.K C.C.C.C.C.C.k g h H k ~.+X~.^.#XT b K T ^..X|.e.i.u.p.h.6 ( ",
"F 2.E ^.C.N.N.N.C.N.H.N.N.C.C.E E C.N._.H m C 1.[.W.K C.C.C.K C.C.C.C.C.N.N.N.N.W.N m g h E W W W U XXB._.D.D.|.|.|.U i.R :.n.( "
};
