/* XPM */
static char *c182e5fe348c48ced3cd43b013de89a8tkgllMyOD6atMr2T[] = {
/* columns rows colors chars-per-pixel */
"64 64 248 2 ",
"   c #393B19",
".  c #3F3B0E",
"X  c #1D3E3C",
"o  c #2C3D2C",
"O  c #2A3D24",
"+  c #333E29",
"@  c #353D23",
"#  c #2B3E34",
"$  c #243E3C",
"%  c #2A3E3B",
"&  c #263D34",
"*  c #323E32",
"=  c #423B14",
"-  c #1C551B",
";  c #1C571A",
":  c #384C09",
">  c #3A550B",
",  c #265417",
"<  c #395B19",
"1  c #294D13",
"2  c #38631D",
"3  c #2C631F",
"4  c #1B453C",
"5  c #194638",
"6  c #1C5127",
"7  c #2A422A",
"8  c #374328",
"9  c #385C25",
"0  c #244234",
"q  c #2B4233",
"w  c #23413C",
"e  c #2B423A",
"r  c #2E4E3F",
"t  c #354536",
"y  c #36583A",
"u  c #285A30",
"i  c #2B6523",
"p  c #2B652B",
"a  c #29672A",
"s  c #346324",
"d  c #376628",
"f  c #2B6535",
"g  c #366A35",
"h  c #397438",
"j  c #3A772D",
"k  c #595708",
"l  c #435E1B",
"z  c #485D16",
"x  c #575A16",
"c  c #4A4A11",
"v  c #685D0E",
"b  c #46631A",
"n  c #58651A",
"m  c #67671A",
"M  c #79731D",
"N  c #464828",
"B  c #465B26",
"V  c #47563A",
"C  c #52542E",
"Z  c #715236",
"A  c #456827",
"S  c #586B28",
"D  c #4B762B",
"F  c #547C2D",
"G  c #5B7C2E",
"H  c #597427",
"J  c #4B6C33",
"K  c #546C36",
"L  c #4B7234",
"P  c #437D35",
"I  c #4B7D34",
"U  c #43733C",
"Y  c #4B723A",
"T  c #477B38",
"R  c #537C34",
"E  c #587936",
"W  c #686A25",
"Q  c #6B7C2D",
"!  c #667729",
"~  c #747D2D",
"^  c #787928",
"/  c #666738",
"(  c #647D33",
")  c #6B7D33",
"_  c #657B39",
"`  c #727C33",
"'  c #787C33",
"]  c #726929",
"[  c #1C3D45",
"{  c #1B3F4C",
"}  c #163F4B",
"|  c #1B3E51",
" . c #163F51",
".. c #233E42",
"X. c #263F46",
"o. c #203F53",
"O. c #7E3E5B",
"+. c #7E3D61",
"@. c #1B4344",
"#. c #16424C",
"$. c #1B424C",
"%. c #164444",
"&. c #164251",
"*. c #1B4252",
"=. c #234243",
"-. c #21424B",
";. c #294642",
":. c #344A44",
">. c #285744",
",. c #214453",
"<. c #345E4F",
"1. c #396A4B",
"2. c #3E7345",
"3. c #396A4F",
"4. c #4A5846",
"5. c #7E434B",
"6. c #7D4744",
"7. c #7E425C",
"8. c #7E4253",
"9. c #7D5147",
"0. c #466C48",
"q. c #556648",
"w. c #437444",
"e. c #467648",
"r. c #436C54",
"t. c #447254",
"y. c #59714A",
"u. c #686A48",
"i. c #677944",
"p. c #797B48",
"a. c #767754",
"s. c #6C7354",
"d. c #7E4262",
"f. c #6C7963",
"g. c #844B3A",
"h. c #8B5536",
"j. c #857B27",
"k. c #867C34",
"l. c #96683E",
"z. c #83791C",
"x. c #823E5D",
"c. c #823E57",
"v. c #843D63",
"b. c #883C68",
"n. c #913E6F",
"m. c #82444C",
"M. c #824845",
"N. c #865748",
"B. c #824354",
"V. c #82415C",
"C. c #87445B",
"Z. c #955E47",
"A. c #867A4A",
"S. c #916F4E",
"D. c #A67A57",
"F. c #A87E4C",
"G. c #834162",
"H. c #8D436C",
"J. c #8A4165",
"K. c #934572",
"L. c #984877",
"P. c #8F456F",
"I. c #9E7861",
"U. c #3F8237",
"Y. c #448235",
"T. c #4B8235",
"R. c #45823B",
"E. c #4C843C",
"W. c #4C883D",
"Q. c #558335",
"!. c #5C8335",
"~. c #53853C",
"^. c #5B843B",
"/. c #53893D",
"(. c #5B8939",
"). c #5B822E",
"_. c #68812D",
"`. c #78822B",
"'. c #638335",
"]. c #6B8233",
"[. c #62843A",
"{. c #68873A",
"}. c #788738",
"|. c #74913D",
" X c #4C8543",
".X c #4B8747",
"XX c #538543",
"oX c #5B8541",
"OX c #528943",
"+X c #548847",
"@X c #54815D",
"#X c #768946",
"$X c #7B9447",
"%X c #74924D",
"&X c #7A8667",
"*X c #888836",
"=X c #968C39",
"-X c #96933C",
";X c #8E8B31",
":X c #A8953C",
">X c #B2953B",
",X c #A58834",
"<X c #868A48",
"1X c #978B46",
"2X c #889749",
"3X c #9D9C45",
"4X c #959B4D",
"5X c #9B9D4C",
"6X c #969547",
"7X c #978B58",
"8X c #8B9957",
"9X c #949C54",
"0X c #9B9C53",
"qX c #999758",
"wX c #898855",
"eX c #A98E47",
"rX c #A49C45",
"tX c #AA9A43",
"yX c #A39C4B",
"uX c #A89647",
"iX c #B49545",
"pX c #AA8A58",
"aX c #B78E58",
"sX c #A39B53",
"dX c #AA945C",
"fX c #A69659",
"gX c #B39358",
"hX c #B68E4C",
"jX c #9BA14C",
"kX c #95A14C",
"lX c #8AA353",
"zX c #96A155",
"xX c #8CA14C",
"cX c #A3A14D",
"vX c #888967",
"bX c #989669",
"nX c #8B9375",
"mX c #949473",
"MX c #969876",
"NX c #8B8F6C",
"BX c #AA8C65",
"VX c #B28C66",
"CX c #A29564",
"ZX c #A69765",
"AX c #AC9569",
"SX c #91A663",
"DX c #7E8E81",
"FX c #949C82",
/* pixels */
"#.#.-.o.| X.% & & ..@.$.#.#.&.#.{ *.&.&.*.{ -.$.#.#.#.&.| *.{ *.*.| *.#.#.#.*.*.$.[ *.*.#.*.*.| | | #.#.*.*.*.{ { ..@ + @.*.{ *.",
"$.$.$ ..X...% FX&Xt $ [ { *.*.#.$.$.#.*.*.| | { $.#.&.*.{ o.......o.[ $.$.$.*.*.$.,.}  .#.{ | *.*.*.$.*. .*.{ =.$ 4.FXf.@.#.{ { ",
"#.=.q nXf.+ X.q.ZX7X+ ;.{ | *.{ $.*.$.#.$.{ { { $.#.*.$.} ..& # # q 0 4 ..{ { *.{ $.*.*.*.{ #.%.$.$.$.{ *.{ X 7 u.mXf.% $.*.{ -.",
"$.X q &XmXN % # p.CXa.o ..o.{ #.#.$.$.%.$.@.=.;.% e e ;.:.r.s.f.f.a.f.4.:.:.% % $ 4 [ { *.#.$.$.$.%.[ -.[ ;.N bXCX/ o ..$.{ :.e ",
"$.-.$ t bX' # $ + vXAXA.o -.[ $.$.#.$.#.%.X 7 8 / bXmXmXMXnXvXNXvXNXnXMXFXmXbXA.C 8 q % @.%.$.} #.#.*...# C eXgXa.8 w { [ :.nXN ",
"} $.o.& 7XZXt $ ..* a.AXa.# % @.$.=.w e # q.nXbXbXa.N N 8 @ @   = =   + @ N Z 7XbXmX&Xy # $ ..o.$.@.$ * a.ZXgX7X+ $ $.X.e f.mX= ",
"*.| | ;.C bXV % ..$ o a.bX7X8 # ..% @ u.bXmXs.r o % % $ X.$ & 8 pXA.o e ......% 0 4.nXMXvXC * % % # N CXAXCX4.o =.#.{ $ C ZXNX@ ",
"| *.| ..8 MXMX7 w %.$ O p.CXCXq.+ 4.mXCX] c 8 0 [ } { | o.[ 0 q.fXfXu.& X.o.| { [ X # N wXmXvX+ 8 u.CXAXA.  # -.$.$.[ t bXZXN 0 ",
"| *.$.=.;.4.CXx 0 %.#...# N bXdX7XCXu.c ] 7XbXt $.&.*.| #.w 8 bXu.u.bXN % { ,.#.$.%.=.;.$ 4.I.bXCXCXmXV # w [ $.#.-.o I.mXu.* X.",
"*.#.$.$.X.% ZX7Xy >.5 #.$.% N ZXAXc = a.sXsXi.q.%.&.| ,.{ e A.eX. = A.BXt ..$.$.$.$.{ [ X.% o q.bX= * % -.#.$.#.$.% C CXmX@ .. .",
"$.#.#.#.$.# A.fXd g f >.%.@.o f.% @ x sXqX_ J 0.4 #.#.} ,.t dXhXeXeX,XiXvX# $ $.#.$.[ =.# * e w $ =.=.%.$.#.$.=.@.t fXBX8 % { #.",
"$.#.#.$.%.# C ZXK L p f >.4 4 w % o fX1X/ E J w.1.%.#.#...+ 1XiX>X>X>XiXwX7 w { $.@.e 4.vXq.% $.*.*.#.&.*.#.$...# u.dX' # $.$.} ",
"*.{ *.*.#.w   bX9X].(.+Xf >.5 0 8 wXfX~ K U h U 3.5 =.w 7 B x k j.j.^ '   7 $ { $.;.t AXgXdX8 w %.#.,.$.$.#.{ ..8 MXbX@ w $.#.*.",
"{ $.*.| #.-.# s.sX! '.~. Xf y 7 a.7XsX' Y U U L 0.7 7 V y.#X2XzX5XrX4XbX&Xq.:.& & # + AXgXfXNX7 w @.[ X.@.{ -.& C ZXu.# @.$.#.#.",
"{ { *.*.*.#...4.sX=X).~.+Xd l 8X8X` sX' L w.Y J / W qXbXzX2X$X|.' 0X<XW &XmXMXmX/ @ * * C 7XfXCXN 7 :.5 $.$.[ * fXfX8 -.*.} ,.*.",
"*.#.*.&.#.%.$.t 6X-X'./.OXE S 0XS ! sX] L K K #XzXzX5Xm W ) '.( k.sX/ 8 O @ N s.mXmXu.* O @ C dXbXi.q.r.4 @...q.dX7X% { &.*.o.{ ",
"{ { *.*.*.$.} q k.rX'.~.~.!.' 5XS H 0X] S ! <X5X9XA b E ^.^.^.'.' sXu.+ % ..$ 0 7 u.bXbX8 + 7 N qXsXp.K >.w 7 MXCXC ..{  .*.#.,.",
"$.$.#.*.#.$.w y qX*X!.~./.!.`.yXn <XfXM W jXyX' b s I oX^._ _ ) ^ gXa.N * % =.$ 0 q.x 2XbXV q O C sXSXK e.5 O NXbX  $ *.| *.{ o.",
"$.#.#.*.*.=.o a.8X) ^.XX/.'.`.cX1XsX*X] uXrX! l 2 T !.].' 1XeXhXaXaXVXVXpXa./ O 6 t.u B *XCXq.8 C %Xi.w.w.r 5 4.bXN X.| -.-.{ $.",
"$.#.*.#.#.w 8 bXH ^.+XW.XX!.}.jX4XW W sX1X5XqXz L _ ].7XfXpXS.h.h.g.g.Z.D.VXBXwX8 q.d B *XuXqXN K Y U U w.0.4 0 vXA.% | $.{ #.#.",
"*.*.| | #.w i.qX< OXh a XX^.!.[.< b 1X5XH W 5X-X^ 6XBXS.9.6.5.m.c.B.m.m.m.6.Z.VXdX] x qXyX=X1XqXK L U w.2.t.4 q N mX% o.$.#.#.#.",
"| *.o.*.$.0 bX' A  Xa a +XXX~.~.2 #XzXW J 2 k.iXiXaXg.m.7.G.v.x.c.c.v.v.7.B.m.g.D.aX1XsX6Xx x qX2XS T U 2.2.<.0 @ nXs.% { #.#.*.",
"| *.#.@.5 y 8Xz E OXa a OXXX~.Q.n 8X#XJ d 2 ] hXD.M.B.c.C.x.v.b.V.V.+.d.7.7.c.c.g.Z.aXeX` [.9 A qX` L h w.0.t.0 q u.nX+ -.*.#.#.",
"| $.#.X 7 f.8Xl ^.OXi T ~./.Q.[.}.4XJ U d B fXpX6.8.V.x.v.b.b.b.v.G.+.d.V.x.C.x.c.c.l.gX}._ d s 2XqXK L U e.0.5 X :.bXN % #.*.*.",
"$.%.$...@ nXi.s oXR b $X/.oX!.'.zXH D d 9 wXVXM.5.d.7.G.b.b.n.L.K.J.V.O.G.G.v.+.7.B.M.D.uXQ ~.s S 8X) L Y w.K u @.# bX/ & | | &.",
"$.{ o...N bXA U oXR ! zX(.~.'.|.zXb U s n dXZ.6.7.d.G.K.L.L.L.n.J.J.x.x.x.v.b.G.G.7.8.M.aX1XE i < 8X8XK L T NXq.q # A.wX& [ *.{ ",
"*.#.{ % C bXd +X~.).jX-X'.!.) zX2Xs g s <XpXM.m.8.7.L.K.H.v.x.x.V.x.O.d.d.d.d.x.V.V.V.5.l.dX#Xs s E SXS L E 0XqXN @ Z bXe { { $.",
"&.*.#.e / qX< oX( -XjX_.!.!.Q zX'.d p 1 sXl.M.c.G.J.K.H.b.v.V.C.V.V.G.d.d.7.V.V.V.O.G.5.g.pXp.J d Y qX! S L *XsXZXA.c bX* =.$.@.",
"*.$.%.0 <X6X2 [.' 5X].F ~.!.`.cXG I 3 9 VXh.c.c.v.L.n.v.v.+.G.x.x.V.G.G.V.7.V.V.d.d.d.B.O.BX7X_ d A qXk.S l < _ A.fXeXbXe -.*.&.",
"@.4 5 7 6X1X< i.rXrXz D /.(.}.rX! E 1 / BXg.c.x.H.L.b.b.b.H.P.v.v.7.G.7.O.V.x.x.G.G.7.O.6.S.fX^ l S =X:Xx SXJ l m uX,XfXt -.*.&.",
"t.0.t.y qX*X< {.tXiXm D ~.!.;XtX:XrXk.1XBXM.c.x.K.L.b.v.v.L.J.x.x.7.v.d.x.C.x.v.v.K.x.C.O.g.aXuXuX=X,X:XM 5X) x v iXv CXt %.{ *.",
"w.w.w.K 4X' z #X:X>X4Xb !.'.=X:X,XrXtXeXpXZ c.x.b.L.x.v.b.K.x.v.x.G.G.v.G.J.x.x.b.H.G.B.B.N.aXz.rXtX,X:X*X0X9X}.=XsXc MX:.=.| | ",
"1.t.e.J 0Xj.z <X3X,X:Xm !.).-X3X! G : wXBXZ 8.G.v.v.J.c.b.K.H.v.b.O.G.v.b.K.G.v.n.L.b.V.7.9.dXm l H =XeXz i.8XjXzXqXc nX:.$ *.*.",
"6 w.U L 1X*Xl %XjX^ 3X6XF ).*XjXF T.1 p.BXg.m.x.J.x.c.c.G.P.P.H.v.v.G.+.H.K.v.x.n.L.v.O.8.N.AXz 3 J =X6X< h b _.S z : MX:.-.$.#.",
"0 0.2.L <X6Xl ^.xX_.].$X!.[.`.kXQ.Y.< J BXg.m.V.7.7.7.7.v.b.K.K.J.G.V.C.K.H.c.x.L.n.v.V.m.I.qXl 9 g 6X*X^.P 3 ~.R 9 z MXr $.} $.",
"5 3.w.L ' 4Xd I (.).'.^.oX[.].kXF T.d < fXh.M.c.7.7.7.7.7.v.G.b.G.7.V.x.H.b.b.H.L.b.v.B.9.BX<Xd u < 0X' (.d i .X+X< x bX:.$.$.$.",
"5 3.t.J ) 9X9 h ~.(./.~.XX^.].kX|.F E.< yXF.6.C.7.7.d.G.G.v.O.O.x.x.c.v.+.+.n.L.H.v.x.m.h.dX[.s , < 0X~ XXp i .X Xb ! bX0 } *.$.",
"5 1.w.L W zXd s OXW./.OXOX(.G $X4XH R I n dXM.C.C.7.G.d.O.V.x.J.V.v.x.v.v.H.K.K.x.V.c.M.F.qXi., 1 #X4X].XXa i E.OXE *X<X0 #.$.#.",
"@.>.3.U H bXE , D E.W.W.Q./.(.'.kX_.D T.> qXD.M.B.7.d.d.V.v.x.v.v.b.b.b.n.L.L.b.G.x.5.N.pX' Y 1 c zX$XE e.a P OXXX[.4X/ 0 *.#.$.",
"$.w t.U K %X8X: ; OXW.OX/./.Q._.kX-XF I D A CXS.6.8.C.d.v.x.H.H.H.H.n.L.L.n.b.b.x.m.g.VX1X_ 1 1 }.kXQ '.s d XX~.~.'.kXC 4 #.$.#.",
"#.>.2.L Y K zXz , j  X~./.~.(.).`.kX'.R R > <XZXN.M.C.d.x.x.H.K.K.K.K.H.G.v.V.C.B.g.aXiX*X! 1 < kX=X^ 2X%Xs (.!.'.$XlXB >.%.{ $.",
"{ @.t.T U Y 9X~ 1 - .XOX/./.T.'.Q 4X8X! I D c 6XgXZ.6.5.B.C.v.v.b.b.v.v.G.C.B.6.M.VXeX:XyXn : #XrXM :XjXD ~.~.)._.xX^.s r.=.$.{ ",
"-.4 t.U U L }.0Xd , - .X~.~./.'.Q ' 3X$XF D : x eXhXF.h.g.B.x.G.x.x.d.7.B.m.g.Z.aX1X` ` yXuXm tX;X:X>Xj.z oXQ.(.`.xXd g t.4 $.| ",
"#.%.1.w.2.Y S 9Xi.1 6 - OX+X/.^.kX;Xj.5X}._.H jXuXk.eXgXD.N.6.5.c.c.Z 9.M.S.VXdX*X].Q.E k iXtX;X:X:X:XrXS ^.W.).-X4XA f 3.4 $.| ",
"&.@.t.U h w.K $X0X` , - ;  X~.{.rX>X^ *XjX;X-X:X}._.].#X0XdXgXgXhX>XeXeXfXqX<Xi.[.~.2 2 k rX-X;X:X:Xk rXlXE oX).tXuXE u t.w $.#.",
"&.@.2.w.U Y Y K rXcX9 a a p 3 2 3X=X:X`.;X:X:X;X! !.^.Q.Q _.^ ;X>X,X;X*X! ) ^.^.^.!.2 G kX-X`.jXrX^ j.3X}.^.E.H :XuXK g t.@.%.#.",
"#.%.>.t.e.h g B :XtXA i i g d A kXv -X3Xm `.-XrX^ ! !.!.!.!.!._.,XtX! E [.G oXQ.( ~ 6X5X2XQ }.xX].m cX*X!.T.W.H :XtXA 1.3.@.@.%.",
"$.@.5 r.f 9 9 ' :XrX!.OX/.(.^.].jXz.v 3XjXz m -XkX4X{.'.!.'.!._.:X:X].^._ ).!.{.2X5X3X' ].!.G '.!.2X2X_.F Y.T R ;XyXJ w.<.@.@.@.",
"*.@.5 f p 2 ' tXtX`.^./.Q.xX3X:X>X;Xz.j.iX:Xb D ].2X3XjX-X`.`.^ >X>Xx `.`.;XkXkX9X].].).^.(.Q.(.[.lX'.F E.Y.T.D Q jX#XK X #.{ { ",
"%.4 f f p ^.rXiX3XQ ~.OX(.}.:XiX:XrXcXcXtX3X[.W.'.]._.;X6XkX4XkXtXtX3X6XjX3X*X_.].'.!././.W./.Q.Q.T.T.Y.P Y.Y.T.H zX9XK 0 #.*.{ ",
"u f f U oX}.tXrX_ ^. X.XOX^.{.}.2X}.].{.#X|.T.OX~.!.'.).R ^.oX[.`.`.n ! ^ _.'.!.^.^./.W.W.~.T.T I T.P T.Y.Y.R.P s #XzXB 6 #.#.&.",
"2.f .XoX) 5XrXm 1 ; , - ; d E {.].'.!.(.^.oXE.i Y.T./.OXi T (.(.[.}.6X3X3XkX'.(.Q./.W.OXE.T.T.I I T.T.Y.Y.Y.Y.T I _ 0XW y 5 #.#.",
"6 t.oXG rXrX6X> 1 6 - - ; ; z 2X}.! Q.(.~.XXi i Y.OXOXj a ~.[.zX8X3XtX>XtX6X'.Q.^.~.W.Y.T.T.T.R G H F I R.a h P g A yX-Xd >.@.*.",
"w <.i.2XrXtX) oXXX+X+X+XE ^.! 3XkX]._.).^.i a  XOX X.X, ;  X'.].^ k >X>X-X].( ^.~.E.W.j T.T.F |.xXxX|.G A T U p p < =XuXA u @.#.",
"@.0 W uXsX` G ~./.OX(.!.`.-X:X:X3XcX6X` d 3 a .XW.OXg 6 ; OXQ._.v :XtX*X! !.^.~.T.P Y.T.F ! 6XkX|.kXrXyX! l g p .Xy.' yX#X9 4 *.",
"=.t bXyX) l ~.~.Q.(._.}.jXrXtX;X`.`.4XzXK > A ^.^.~.; -  X/.~.].rX:X;X}.).^.Q.!.Q.^.Q.).xXkX6X^ ! z k cX5X9XE d i D ) 9XqXA 0 $.",
"o nXbX/ A s p d A n rXrXkX|.].'.!.!.'.%X8X0X6X~ Q 1 , , OX~.^.G jXrXjXkX$X(.'._.~ }.6X4XxX].'.G oXA A A 2XkXkXn 2 ~.^.) sX/ q o.",
"8 &XJ A Y e.d b <X3XrX^ > b Q./.~.Q.OX< > W 5XjX0X}.A oX^.'.!.: M ;XM M _._.$XxXzX5X6Xz > Q.~.XX+Xp p s z `.jXcX}.[.oXl qXCXV % ",
"=.w 7 U U E `.3XrXjXz < s d W.W.~.~.OX, - s Q.'.H $X8XzX9X0X6X-X,X-XcX3XzXlXxX$X{.!.oX1 , ; ;  X.X X.X+X!.'.}.kXcX*X2 < B mXbX= ",
"%.4 t.e.E _ jXrX-X`.F R.R.T R.Y.W.W.OX; - a p /.^.'.) ` S W ^ *X;X;X*X`.! b b D ~.~.oXT a 6 ; ; ; ; g .XE ^.E ].3XyX2X9 O t nX/ ",
"4 r e.T.H kXjX-X! Q.T.Y.U.R. XT U.E.R.W.a a h .XXXoXd u , , 2 G F F ).T.!.I s d h W./.XX.Xu f f f a .X.X+Xe.g s B 8X0Xc 7 4 ;.% ",
"5 3.e.R _.kX-XH I Y.Y.E.Y.R.Y.R.R.U.Y.T f a .XU.i p f ; 6 ;  XY.Y.Y.Y.R.T R.R.a a  X XW..X.X Xh a f i a 3 s d p s S 9XbXr @.$.#.",
"y 2. XT.^.%XF D T T.Y.Y.Y.Y.R.R.U.U.U..Xa f a a a i .XR.R.R.Y.R.T.Y.R.R.Y.U.Y.R.a a a h j .X.X+X+XOXY.j P P XX~.^.I L Y t.3.5 @.",
"2.h  XR.T.I T.T.T  XT.Y.P R.Y.U.U.U..XU.U.a f h .XR.Y.Y.Y.Y.U.R.P Y.U.Y.U.U.R.U.R.f a a i h R.T T P W.W.W.W./.~./.+XU w.e.3.r.4 "
};
