/* XPM */
static char *_fcbb92595bf44d6800df589ea80a041c0Ws16FCPLVLVkeK[] = {
/* columns rows colors chars-per-pixel */
"64 64 110 2 ",
"   c #6B443D",
".  c #7A4F3D",
"X  c #553D41",
"o  c #1A414E",
"O  c #23454D",
"+  c #28474C",
"@  c #2B484C",
"#  c #334C4B",
"$  c #3B4F4A",
"%  c #3D5149",
"&  c #455447",
"*  c #4A5647",
"=  c #425249",
"-  c #485548",
";  c #525A46",
":  c #5C5E45",
">  c #636145",
",  c #6C6643",
"<  c #706743",
"1  c #7B6640",
"2  c #746A42",
"3  c #7C6D41",
"4  c #EF2C1F",
"5  c #F0271E",
"6  c #F0291E",
"7  c #EE301F",
"8  c #EF2D20",
"9  c #F02D22",
"0  c #EE3421",
"q  c #EC3B23",
"w  c #EF3A2C",
"e  c #F03126",
"r  c #F0352C",
"t  c #EF3E32",
"y  c #974435",
"u  c #935037",
"i  c #A64031",
"p  c #8C743F",
"a  c #96793E",
"s  c #9F7D3C",
"d  c #A27D3B",
"f  c #E54625",
"g  c #EA4323",
"h  c #E94B25",
"j  c #EC412A",
"k  c #EB492A",
"l  c #E75527",
"z  c #E85126",
"x  c #E55D28",
"c  c #EF4332",
"v  c #EC4B34",
"b  c #F04134",
"n  c #DF742E",
"m  c #DF7D2F",
"M  c #E46229",
"N  c #E26C2B",
"B  c #E1752D",
"V  c #E0792E",
"C  c #E76B39",
"Z  c #E8693C",
"A  c #E27635",
"S  c #E2783A",
"D  c #806F40",
"F  c #EF6553",
"G  c #EB775A",
"H  c #A5803B",
"J  c #AD823A",
"K  c #BF8C37",
"L  c #B3853A",
"P  c #B78839",
"I  c #BB8939",
"U  c #DE802F",
"Y  c #C88435",
"T  c #C58E37",
"R  c #CA8F36",
"E  c #C18D38",
"W  c #DE8330",
"Q  c #DC8C32",
"!  c #CD9136",
"~  c #D59535",
"^  c #DA9533",
"/  c #DA9434",
"(  c #D89634",
")  c #D99734",
"_  c #D89635",
"`  c #DB9734",
"'  c #DB9735",
"]  c #DA9834",
"[  c #DB9835",
"{  c #E79261",
"}  c #E69D69",
"|  c #E8986B",
" . c #EEA189",
".. c #ECBC9E",
"X. c #EAC79F",
"o. c #EECDB0",
"O. c #EFD5BA",
"+. c #EFD9BF",
"@. c #EFDCC1",
"#. c #F0DDC3",
"$. c #F2E1D2",
"%. c #F2E6D3",
"&. c #F2E6D6",
"*. c #F2E7D7",
"=. c #F2EADC",
"-. c #F3EBDD",
";. c #F3EBDE",
":. c #F2EBDF",
">. c #F3EBDF",
",. c #F3ECDF",
/* pixels */
"o o o o o o o o o o o o o o o o o o o o o o o o o o o o o o O o + + + + O O O o o o o o o o o o o o o o o o o o o o o o o o o o ",
"o o o o o o o o o o o o o o o o o o o o o o o o o o o o o + & 3 L T ~ R K s u = + @ o o o o o o o o o o o o o o o o o o o o o o ",
"o o o o o o o o o o o o o o o o o o o o o o o o o o o @ 3 N N ] ] ] ] ] ^ g h _ L > @ O o o o o o o o o o o o o o o o o o o o o ",
"o o o o o o o o o o o o o o o o o o o o o o o o o X i ~ ] x 6 Q ] ] ^ ^ V 0 Q _ ` ^ R y + o o o o o o o o o o o o o o o o o o o ",
"o o o o o o o o o o o o o o o o o o o o o o o o @ 9 M ] ] ^ 6 m ] ] _ ] U g ^ _ ^ ` Q 9 1 O o o o o o o o o o o o o o o o o o o ",
"o o o o o o o o o o o o o o o o o o o o o o o # Y 9 Q ^ ^ _ V ^ ^ ` ] ] _ ] _ ] _ ^ N 6 ^ L # o o o o o o o o o o o o o o o o o ",
"o o o o o o o o o o o o o o o o o o o o o O % ~ Q 4 Q _ _ ` ] ` _ ` ^ ^ _ ] ` ` ] _ 7 h ] ' T o o o o o o o o o o o o o o o o o ",
"o o o o o o o o o o o o o o o o o o o o o # _ ] Q 4 B _ ^ ` _ ` _ ] ] ` ` ` ^ ] W 7 6 ^ ` ` ] : o o o o o o o o o o o o o o o o ",
"o o o o o o o o o o o o o o o o o o o o + T ' ' ] z 6 ^ ^ ^ ] ` ` ] ^ ` ' ` ^ z 6 g _ ` ` ] ^ ~ o o o o o o o o o o o o o o o o ",
"o o o o o o o o o o o o o o o o o o o o D _ ' ' ^ m 6 M ] ] ] ^ ` ] ] ] ` _ 0 5 V ^ ` ` _ ] ^ _ - o o o o o o o o o o o o o o o ",
"o o o o o o o o o o o o o o o o o o o # ] ' ' M 9 w 6 6 B ] ] _ _ ` _ ` W 0 5 9 6 6 M ^ _ ] ] _ d o o o o o o o o o o o o o o o ",
"o o o o o o o o o o o o o o o o o o O D ] ' N b *.=.#.e 6 ] ] ^ ` ` ^ ^ q 6 w O.X.Z 6 z ^ ] ] ] ! o o o o o o o o o o o o o o o ",
"o o o o o o o o o o o o o o o o o o @ ! ] V r =.:.,.,.*.e V ] _ ` ] ` z 6 v =.,.-.,.{ 4 _ ^ ^ ^ _ @ o o o o o o o o o o o o o o ",
"o o o o o o o o o o o o o o o o o o = _ ] W 0 :.,.,.,.=.b z ] ] ^ ] ^ 6 G ;.,.,.,.,.%.0 B ^ ] ] ^ # o o o o o o o o o o o o o o ",
"o o o o o o o o o o o o o o o o o O > ` ] _ t =.,.,.,.,.Z 7 ] ` ^ _ Q 6 *.,.,.,.,.,.-.j h ^ _ ` _ % o o o o o o o o o o o o o o ",
"o o o o o o o o o o o o o o o o o O < ` _ Q c :.,.,.,.,.S 6 ^ ` ] ] M c ;.;.>.,.-.,.-.v g ] _ ` _ = o o o o o o o o o o o o o o ",
"o o o o o o o o o o o o o o o o o o , _ _ _ w =.,.,.,.,.k e ~ ^ ] ] q G ,.,.,.,.;.;.-.r M ] ] ] ] % o o o o o o o o o o o o o o ",
"o o o o o o o o o o o o o o o o o o * _ _ ^ e $.,.-.,.,.0 0 ^ ^ ^ ] 4 ..,.,.,.,.;.-.} 6 Q ^ ^ ` _ % o o o o o o o o o o o o o o ",
"o o o o o o o o o o o o o o o o o o o ! ] _ z v =.=.-.o.5 4 ] ] ) ) 0  .,.,.-.,.;.#.7 z ` ] ` ` _ # o o o o o o o o o o o o o o ",
"o o o o o o o o o o o o o o o o o o o : ^ ^ Q 6 h A q 9 6 h _ ^ ] ^ l r =.-.-.-.+.q 6 _ _ ] ~ ^ ~ + o o o o o o o o o o o o o o ",
"o o o o o o o o o o o o o o o o o o o + E ^ ] B 7 6 g l 6 Q ` _ ~ ` W 6 9 F | C 0 0 Q _ ^ ` ] ] d o o o o o o o o o o o o o o o ",
"o o o o o o o o o o o o o o o o o o o o % ] _ ] ] ^ N 6 q ] ` ] ^ ] _ e 6 q 6 6 z ^ ] ] ~ ] ] ] : o o o o o o o o o o o o o o o ",
"o o o o o o o o o o o o o o o o o o o o O p ] ^ Q q 5 0 ^ ^ ^ ] ^ ` ^ _ 4 6 7 _ ` _ ] ^ ] ^ ~ ~ + o o o o o o o o o o o o o o o ",
"o o o o o o o o o o o o o o o o o o o o o @ ~ ^ q 6 6 ^ ` ^ ^ ] ] ^ ^ ` ` N 6 0 ^ ] ] ^ ] ~ ] : o o o o o o o o o o o o o o o o ",
"o o o o o o o o o o o o o o o o o o o o o o , U 4 0 Q ~ ] ] _ ] ] ^ ] ^ ] ` x 6 0 ] ] ] _ ] < o o o o o o o o o o o o o o o o o ",
"o o o o o o o o o o o o o o o o o o o o o o + f 5 Q _ _ ` ^ ` ` ] ` ] ` ] _ ^ h 6 W ] _ ~ , o o o o o o o o o o o o o o o o o o ",
"o o o o o o o o o o o o o o o o o o o o o o o   g ] ` _ ] ] _ ^ ^ ] ] _ ` ^ ^ Q 6 l ^ R # o o o o o o o o o o o o o o o o o o o ",
"o o o o o o o o o o o o o o o o o o o o o o o o L _ ` ` ` ` _ ] ^ ] ] ^ _ _ ` ` 4 g 2 + o o o o o o o o o o o o o o o o o o o o ",
"o o o o o o o o o o o o o o o o o o o o o o o o % _ _ ` ` ] _ ] ] ] _ ] ` ] ^ _ n . o o o o o o o o o o o o o o o o o o o o o o ",
"o o o o o o o o o o o o o o o o o o o o o o o o O L ] ^ ` _ ] ` ^ ^ ] _ ` ^ ` _ # o o o o o o o o o o o o o o o o o o o o o o o ",
"o o o o o o o o o o o o o o o o o o o o o o o o o % ^ ] ` ^ ^ ] ] _ ] ^ ] _ d o o o o o o o o o o o o o o o o o o o o o o o o o ",
"o o o o o o o o o o o o o o o o o o o o o o o o o O _ ^ ] ] ] _ ' ] ] ^ ] ~ O o o o o o o o o o o o o o o o o o o o o o o o o o ",
"o o o o o o o o o o o o o o o o o o o o o o o o o o ~ ~ _ ` ] ^ ] ^ ] _ ] + o o o o o o o o o o o o o o o o o o o o o o o o o o ",
"o o o o o o o o o o o o o o o o o o o o o o o o o o O ~ ] ` _ ^ ] ^ ] ~ R o o o o o o o o o o o o o o o o o o o o o o o o o o o ",
"o o o o o o o o o o o o o o o o o o o o o o o o o o O ! ] _ ] ] ] ' ` ~ + o o o O o o o o o o o o o o o o o o o o o o o o o o o ",
"o o o o o o o o o o o o o o o o o o o o o o o o o o @ ~ ^ ] ` ` ] _ ] ^ + o o o o o o o o o o o o o o o o o o o o o o o o o o o ",
"o o o o o o o o o o o o o o o o o o o o o o o o o o + ~ ] ^ ` _ ` ` _ ~ + o o o o o o o o o o o o o o o o o o o o o o o o o o o ",
"o o o o o o o o o o o o o o o o o o o o o o o o o o + _ ` ` ] ] _ _ _ ! ~ o o o o o o o o o o o o o o o o o o o o o o o o o o o ",
"o o o o o o o o o o o o o o o o o o o o o o o o o o ; ] ] _ ^ ] ^ ` ` ~ ~ + o o o o o o o o o o o o o o o o o o o o o o o o o o ",
"o o o o o o o o o o o o o o o o o o o o o o o o o o J ] ] ` _ ] ] ` _ ~ ~ + o o o o o o o o o o o o o o o o o o o o o o o o o o ",
"o o o o o o o o o o o o o o o o o o o o o o o o o @ ~ ~ ] _ ^ ` ] ` ] ] ~ > o o o o o o o o o o o o o o o o o o o o o o o o o o ",
"o o o o o o o o o o o o o o o o o o o o o o o o o 3 ~ ] ^ ] _ ] _ ` ] ^ ~ P o o o o o o o o o o o o o o o o o o o o o o o o o o ",
"o o o o o o o o o o o o o o o o o o o o o o o o & ~ ~ ^ _ ` ] ] ' ] ] ^ ~ ] O o o o o o o o o o o o o o o o o o o o o o o o o o ",
"o o o o o o o o o o o o o o o o o o o o o o o o ~ ^ ] ] _ ` ] ^ ] _ ] ^ ] ~ H o o o o o o o o o o o o o o o o o o o o o o o o o ",
"o o o o o o o o o o o o o o o o o o o o o o o < _ ^ ] ^ ] ] _ ] ^ ^ ` ` ] ~ ^ o o o o o o o o o o o o o o o o o o o o o o o o o ",
"o o o o o o o o o o o o o o o o o o o o o o o T ~ ] _ ] ^ ` ` ] ] ] _ ] _ _ _ + o o o o o o o o o o o o o o o o o o o o o o o o ",
"o o o o o o o o o o o o o o o o o o o o o o O ~ ~ _ ] ] ^ ] ^ ` _ ] ] ` ^ ] _ 2 o o o o o o o o o o o o o o o o o o o o o o o o ",
"o o o o o o o o o o o o o o o o o o o o o o @ ~ _ ] ^ ` ` _ ] ] ` ` _ ^ ` ] _ I o o o o o o o O o o o o o o o o o o o o o o o o ",
"o o o o o o o o o o o o o o o o o o o o o o # _ ] ] _ ` _ ` ] ` _ ] _ ] ] ^ _ ~ o o o o o o o o o o o o o o o o o o o o o o o o ",
"o o o o o o o o o o o o o o o o o o o o o o * ~ _ ` ] ` ^ ] _ ` ` ` ` ] _ ^ ] _ o o o o o o o o o o o o o o o o o o o o o o o o ",
"o o o o o o o o o o o o o o o o o o o o o o 3 ] ` ` ] ^ ` ] ] ^ ` ] ` ` _ ^ ~ ] + o o o o o o o o o o o o o o o o o o o o o o o ",
"o o o o o o o o o o o o o o o o o o o o o o a _ ] _ ] ^ ] _ ] ^ ^ ^ ^ _ ` ] ^ ] O o o o o o o o o o o o o o o o o o o o o o o o ",
"o o o o o o o o o o o o o o o o o o o o o o L _ ] ^ _ ' ` ] ` ] ] _ ` ` ` ] ^ _ O o o o o o o + o o o o o o o o o o o o o o o o ",
"o o o o o o o o o o o o o o o o o o o o o + ! ^ ] ] ] ] ^ ^ ` _ ] ] ] ] ` _ ] ] + o o o o o o o o o o o o o o o o o o o o o o o ",
"o o o o o o o o o o o o o o o o o o o o o + _ ] ] ` ] ] ] _ ^ ] ` _ ~ _ ` ] _ ~ + o o o o o o o o o o o o o o o o o o o o o o o ",
"o o o o o o o o o o o o o o o o o o o o o # ~ ] _ ' ^ ^ ] ] ] ' ` ^ ^ ] ] ^ _ ~ + o o o o o o o o o o o o o o o o o o o o o o o ",
"o o o o o o o o o o o o o o o o o o o o o % ] ] ` ` ^ ^ ] ` ] ] ] ] ] ] ] ` ] ] + o o o o o o o o o o o o o o o o o o o o o o o ",
"o o o o o o o o o o o o o o o o o o o o o # ~ ] ] _ ] ] _ _ ^ _ ] ^ ^ ^ _ ` _ ~ O o o o o o o o o o o o o o o o o o o o o o o o ",
"o o o o o o o o o o o o o o o o o o o o o + _ ^ ] ^ ] ] ` ` ~ _ ] ] _ ] ^ ] _ ! o o o o o o o o o o o o o o o o o o o o o o o o ",
"o o o o o o o o o o o o o o o o o o o o o o R ] ] ^ ` ` ~ ! > ; E ] ' ` ^ ] _ d o o o o o o o o o o o o o o o o o o o o o o o o ",
"o o o o o o o o o o o o o o o o o o o o o o : _ ] _ ] ] L @ o o # ! _ _ ] ~ _ = o o o o o o o o o o o o o o o o o o o o o o o o ",
"o o o o o o o o o o o o o o o o o o o o o o o H _ _ ~ p o o o o o = ~ ~ ! ~ J o o o o o o o o o o o o o o o o o o o o o o o o o ",
"o o o o o o o o o o o o o o o o o o o o o o o o ; p # o o o o o o o % K ~ a o o o o o o o o o o o o o o o o o o o o o o o o o o ",
"o o o o o o o o o o o o o o o o o o o o o o o o o o o o o o o o o o o o o o o o o o o o o o o o o o o o o o o o o o o o o o o o "
};
