/* XPM */
static char *c53e7e1205e64887bbffdac297153c52HMJIaK7qM5Wz7e2a[] = {
/* columns rows colors chars-per-pixel */
"64 64 134 2 ",
"   c #143546",
".  c #123845",
"X  c #133946",
"o  c #123A46",
"O  c #133B47",
"+  c #123749",
"@  c #143548",
"#  c #153649",
"$  c #173648",
"%  c #163748",
"&  c #183749",
"*  c #1A3749",
"=  c #133848",
"-  c #13384A",
";  c #143848",
":  c #143949",
">  c #153949",
",  c #14394B",
"<  c #17384B",
"1  c #153A4A",
"2  c #163A4A",
"3  c #163B4B",
"4  c #173B4B",
"5  c #143C48",
"6  c #153D49",
"7  c #173D4A",
"8  c #163E4A",
"9  c #173F4B",
"0  c #16394C",
"q  c #153A4C",
"w  c #173A4D",
"e  c #173C4C",
"r  c #163D4C",
"t  c #173E4D",
"y  c #173C4E",
"u  c #19384A",
"i  c #18394A",
"p  c #1A394B",
"a  c #193A4B",
"s  c #193F4A",
"d  c #183E4B",
"f  c #18394C",
"g  c #193A4D",
"h  c #1B3A4C",
"j  c #1A3B4C",
"k  c #183B4E",
"l  c #1A3B4E",
"z  c #1C3B4D",
"x  c #183C4C",
"c  c #183D4D",
"v  c #193D4D",
"b  c #1B3C4D",
"n  c #193F4C",
"m  c #193C4F",
"M  c #183D4F",
"N  c #1B3C4F",
"B  c #193E4E",
"V  c #183F4E",
"C  c #1A3E4E",
"Z  c #1A3F4F",
"A  c #1B3F4F",
"S  c #1D3C4E",
"D  c #1C3D4E",
"F  c #1E3D4F",
"G  c #1D3E4F",
"H  c #1A3D50",
"J  c #193E50",
"K  c #1B3E51",
"L  c #1A3F51",
"P  c #1C3D50",
"I  c #1D3E51",
"U  c #1E3F50",
"Y  c #1C3F52",
"T  c #1E3F52",
"R  c #154049",
"E  c #16414A",
"W  c #16424B",
"Q  c #17424B",
"!  c #16404C",
"~  c #17414D",
"^  c #17434C",
"/  c #16424D",
"(  c #17414F",
")  c #16424F",
"_  c #18404A",
"`  c #19414B",
"'  c #18404C",
"]  c #19414D",
"[  c #1B414C",
"{  c #1A404D",
"}  c #18434C",
"|  c #1A424C",
" . c #1B434D",
".. c #19404F",
"X. c #1B414E",
"o. c #18424E",
"O. c #19434F",
"+. c #1A424E",
"@. c #1B434F",
"#. c #1C424D",
"$. c #1C404E",
"%. c #1C424F",
"&. c #18444D",
"*. c #19444D",
"=. c #19454E",
"-. c #18444F",
";. c #1B464F",
":. c #174350",
">. c #1B4050",
",. c #1A4150",
"<. c #184250",
"1. c #194351",
"2. c #1B4251",
"3. c #1B4052",
"4. c #1A4152",
"5. c #1B4253",
"6. c #1C4050",
"7. c #1C4151",
"8. c #1D4151",
"9. c #1F4051",
"0. c #1D4350",
"q. c #1D4053",
"w. c #1C4153",
"e. c #1D4252",
"r. c #1C4352",
"t. c #1E4252",
"y. c #1E4353",
"u. c #1F4353",
"i. c #1A4450",
"p. c #1C4450",
"a. c #1D4453",
"s. c #1E4154",
"d. c #1F4255",
"f. c #204152",
/* pixels */
"s s s s _ _ _ _  .;.-.-.*.E E E ,.,.i.:.,.,.,.,.i.i.-.{ { -.#.{ -.#.{ -.#.{ -.#.i.{ -.i.{ -.i.{ -.i.{ -.{ i.#.#.{ 7.{ #.{ #.#.P ",
"#.#.#.#.#.-. . .*.-._ -.*.*.-.-.) ) :.:.:.:.:.:.:.,.p.-.i.{ { i.i.{ i.{ { i.i.{ { #.#.{ { #.{ #.#.{ { #.#.-.#.,.#.{ 7.{ 7.{ #.#.",
"p.7.#.7.{ -.{ { _ { -.-.-.-.-.-.,.,.,.,.V V Y n { { { { -.#.-.{ { { i.#.-.{ { -.{ -.-.{ i.#.{ -.{ i.i.{ i.{ { #.{ -.#.#.7.{ ,.#.",
"{ { n s { 6 E 6 { { -. . .{ _ _ a.7.,.7.Y ,.) ,.E -.{ { { -.{ i.-.#.{ -.#.i.{ #.i.{ #.i.{ -.i.{ -.{ #.-.{ #.-.-.,.{ #.,.{ #.7.n ",
"{ t t t w t w , w t n n ,.P n Y 7.7.7.P Y n n l { { { { -.{ :.{ i.{ { i.{ -.#.{ { i.{ { #.-.{ #.{ -.-.{ ^ :.-.{ { #.-.{ { { -.#.",
",.,.,.,.n t t Y - - w l n n n Y n G z n 6 w w w { { { i.{ -.^ { { #.-.{ i.{ { i.#.-.-.#.{ { i.-.^ { { -.:.{ { -.i.-.{ i.{ i.i.{ ",
",.4.4.5.Y ,.L 4.w , w < # l l P a , a a l a n n { 7. .{ -.-.{ -.-.#.-.#.#.-.-.#.i.{ { i.i.{ #.{ ,.-.#.{ ) { ^ { { -.{ ^ :.^ { ^ ",
"4.4.4.4.Y Y 4.L 7.P l < # # # # * * a a G G #.7.p.p.p. .#.{ -.{ i.{ { i.{ { i.{ { #.-.{ #.-.-.{ -.{ { i.{ -.i.) ^ { ) :.{ { ) i.",
"4.4.4.4.L 4.4.P 5.f.T P P H l < z z z G F f.f.f.{ 7.i.{ { -.:.{ { { i.{ { i.{ { p. .p.,. .p.p.i.,.Y Y { V n ,.,.:.i.,.,.,.:.:.:.",
"4.4.4.4.4.T 5.,.T T ,.P P P H P G G G G F 7.7.7.#.#.{ #.-.,.^ :.-.#.#.-.#.-.-.#.p.i.-.{ _ ) { 6 ,.,.n P Y ,.,.,.V :.:.:.:.:.:.:.",
",.,.,.,.P ,.,.7.Y n Y n Y #.P P P 7.7.7.7.7.f.7.{ 7.{ -.#.{ { ^ i.{ { i.i.{ { i. .-.#.{ { { { { P 7.7.7.,.Y n Y t t :.,.:.:.:.:.",
",.,.,.,.,.7.7.7.Y t ,.Y n 7.7.7.7.7.7.7.7.7.7.7.#.{ i.{ #.-.:.{ { #.-.{ { #.-.{ #.{ -.p.i.p.p.p.7.7.f.7.7.n Y n Y V ,.:.Y ,.:.V ",
"7.{ 7.{ -.#.{ { p. . .{ ,.{ -.{ ,.,.7.7.,.,.,.,.-.#.{ i.#.{ i.#.-.#.{ -.#.{ -.#.,.{ { { { ^ { 6 s l z P F 7.#.,.7.7.5.,.,.,.:.:.",
"{ #.{ #.{  .-.#.,.i.p.-.{ ) ) { ,.,.,.,.,.,.,.,.{ -.-.{ -.{ { -.i.{ i.{ { i.{ i.p.-.{ n 6 5 O O   * * z G F f.f.7.7.7.,.,.,.:.V ",
"[ [ #.{ _  . ._ -.*.*.E ^ ^ E ^ :.t :.:.,.:.,.:.-.{ #.{ { i.i.{ { { i.#.-.i.{ {  .-.{ _ 6 6 5 O $ * * a a G G n n n t n ,.,.,.,.",
"[ [ { #. . ._ *._ E E E -.^ -.^ t :.V :.:.,.:.:.{ -.{ i.#.-.{ #.-.#.{ -.#.{ -.#.{ { { -.-.{ { { z z a * % # # - # w w t Y ,.,.,.",
"{ -.{ i.{ { i.{ { i.{ { i.) i.{ -.#.{ -.#.{ -.#.{ -.#.{ -.#.{ -.#.-.{ #.-.{ #.-.{ #.i.{ #.-.{ #.P 7.7.G n , , ,   , w w n Y ,.,.",
"{ #.#.-.-.#.#.-.#.-.-.#.-.{ { #.i.{ i.{ { i.i.{ i.{ { i.i.{ i.{ { { i.-.#.i.{ { i.-.{ #.{ { i.-.7.{ Y ,.Y n n l n 6 n n Y n Y 7.",
"-.-.#.{ i.{ { i.i.{ { i.#.#.{ -.{ { i.#.-.{ { -.-.#.#.-.{ { i.#.i.{ i.{ { i.{ i.{ -.{ -.i.{ i.{ ,.,.{ 7.7.7.,.Y Y G ,.,.,.{ n 7.",
"#.{ { i.{ #.-.{ { #.-.{ { -.i.{ -.#.{ -.#.i.{ #.{ i.{ { -.#.{ -.#.-.{ #.-.{ #.-.{ #.i.{ #.-.{ #.n P ,.7.7.7.,.,.,.7.7.7.P Y ,.Y ",
"#.-.{ #.-.i.{ -.#.{ i.#.-.{ #.-.i.{ { i.{ -.#.{ i.{ -.i.{ #.i.{ { -.#.{ { -.#.{ i.#.{ i.-.#.{ -.Y Y Y { ,.P n Y ,.{ Y ,.,.P ,.7.",
"{ { i.-.#.{ { #.-.{ { -.#.i.{ { { #.-.{ i.{ { i.{ #.#.{ i.-.{ #.i.{ { i.i.{ { i.{ -.-.{ { i.i.{ ,.{ ,.,.,.,.Y t Y Y n Y 7.,.7.{ ",
"i.{ i.{ { i.i.{ { i.i.{ { i.{ i.-.#.-.#.#.-.-.#.{ -.-.{ { -.{ -.#.-.-.#.-.#.#.-.{ #.#.{ #.{ { #.Y ,.,.,.,.,.,.{ { ,.,.,.,.,.,.,.",
"#.-.{ #.-.{ #.-.#.-.{ #.-.{ #.-.i.{ { i.{ { i.{ i.{ #.i.{ #.i.{ { { i.{ { i.{ { i.-.{ i.-.{ i.-.{ ,.,.,.7.,.,.,.a.,.p.7.,.,.,.,.",
"{ -.#.{ -.#.{ -.#.{ -.#.{ -.#.{ { { i.{ { i.{ { i.#.{ i.#.{ i.#.i.{ { i.{ { i.{ i.{ -.i.{ -.i.{ ,.,.,.,.,.,.,.,.,.,.,.,.,.,.,.,.",
"i.{ { i.{ i.i.{ { i.i.{ i.{ { i.-.#.#.-.#.-.-.#.{ -.-.{ -.{ { -.#.-.#.-.-.#.#.-.{ #.#.{ { #.{ #.,.,.,.,.,.,.,.,.,.,.,.,.,.,.,.,.",
"#.-.-.#.#.{ { #.-.{ { -.-.#.#.-.i.{ { i.i.{ { i.{ #.#.{ { i.i.{ { -.#.{ i.{ { i.{ -.-.{ i.#.{ -.,.,.,.,.,.,.,.,.,.,.,.,.,.,.,.,.",
"{ { i.{ -.{ i.-.#.i.{ #.{ i.{ { { #.-.{ { #.-.{ i.-.{ i.#.-.{ #.i.{ { i.{ #.-.{ i.{ #.i.{ -.i.{ ,.,.,.,.,.,.,.,.,.,.,.,.,.,.,.,.",
"i.{ { i.{ -.i.{ { i.#.{ i.{ { i.-.#.{ -.#.{ -.#.{ -.i.{ -.#.{ -.#.-.{ #.-.i.{ -.{ i.{ { #.-.{ i.:.:.,.:.:.Y :.V :.,.:.:.:.:.,.:.",
"#.-.#.-.{ #.{ #.-.{ -.{ #.-.#.-.i.{ i.{ { i.{ i.{ #.{ #.i.{ i.{ { { i.-.#.{ { #.#.-.-.#.{ { -.{ ,.:.Y :.:.,.:.:.:.:.V :.,.:.,.:.",
"{ -.#.{ i.#.{ -.#.{ -.i.{ -.#.{ { { i.#.-.i.{ { i.#.{ -.{ { i.#.i.{ i.{ { i.i.{ i.{ { i.i.{ ,.{ :.,.:.:.:.:.:.:.,.:.:.Y :.,.:.:.",
"i.{ { i.{ -.i.{ { i.#.{ i.{ { i.-.#.{ -.#.{ -.#.{ -.i.{ -.#.{ -.#.-.{ #.-.{ #.-.{ #.-.{ #.-.{ ,.:.:.V :.,.:.V :.Y :.:.,.:.:.:.,.",
"7.7.n Y Y Y 7.7.,.P n Y { Y ,.P p.{ { { { { #.7.{ 7.{ 7.7.{ 7.{ { i.#.{ i.#.{ i.#.{ i.#.{ i.#.{ i.#.{ i.#.{ i.#.{ i.#.{ i.#.{ i.",
",.n Y n t n Y n 5.7.5.7.,.7.{ ,.7.7.#.{ { { { #.#.{ #.{ { #.{ #.-.{ -.{ { -.-.{ -.{ { -.-.{ -.{ { -.-.{ -.{ { -.-.{ -.{ { -.-.{ ",
"Y n w t , n t t 7.f.P 5.7.P P ,.#.#.{ { { { { { { 7.,.#.#.{ #.,.#.{ -.i.{ #.#.{ { i.i.{ #.{ -.i.{ #.#.{ { i.i.{ #.{ -.i.{ #.#.{ ",
"n Y Y n 6 w w w n n n n ,.,.7.,.n { { { { { { #. .{ #. .{ 7. .{ { i.#.{ i.-.{ i.#.-.{ #.{ i.#.{ i.-.{ i.#.-.{ #.{ i.#.{ i.-.{ i.",
",.P ,.n n w n t - , , 6 6 n Y n 6 n n n { #.7.7.#.{ 7.{ { 7.{ 7.-.{ #.-.{ { i.{ -.#.{ -.{ i.-.{ { -.i.{ -.#.{ -.-.{ #.-.{ { i.{ ",
"5.7.Y Y ,.{ Y n w t t a w , - , s 6 n n #.7.p.p.,.#.{ #.#.{ #.{ #.i.{ { -.#.#.-.{ i.i.{ -.{ #.i.{ #.{ #.i.{ i.{ #.i.{ { -.#.#.-.",
"7.7.n ,.,.P P 7.Y ,.n n n l l n n n n 7.7. .7.,. .{ 7.{ { 7. .{ { i.{ i.i.{ { i.#.{ { #.#.{ #.{ i.#.{ -.{ { i.#.{ i.{ i.i.{ { i.",
"7.7.n Y 7.,.7.,.,.P ,.P n 7.,.7.#.{ 7.#.#.#.{ { #.7.{ #.#.,.#.7.-.{ #.-.{ #.-.{ -.{ i.-.{ i.-.{ { -.i.{ -.#.{ -.-.{ #.-.{ #.-.{ ",
"{ ,.{ -.#.{ -.#.{ -.#.{ -.#.{ -.{ 7.{ #.{  .#.,.{ #.{ #.{ 7.#.{ #.{ -.#.{ -.#.{ -.i.{ -.i.{ -.i.{ #.i.{ #.-.{ #.#.{ -.#.{ -.#.{ ",
"-.{ i.{ { i.i.{ i.{ { i.i.{ i.{ #.{ 7.{ 7.{ { #.7.{ 7.{  .{ { 7.{ i.i.{ i.{ { i.#.{ { #.{ #.#.{ i.-.{ #.{ { i.-.{ i.{ i.i.{ { i.",
"{ { i.#.-.{ { -.-.#.#.-.{ { i.#.{ #.{ #.#.{ 7.{ ,.#.7.{ #.{ 7.{ -.{ { -.-.#.#.-.{ i.i.{ { -.-.{ { -.{ -.i.{ i.{ -.i.{ { #.-.-.#.",
"-.#.{ -.#.i.{ #.{ i.{ { -.#.{ -.7.{ 7.{ { 7.{ #.#. .{ #.,.#.{ #.#.i.{ #.{ i.{ { -.{ #.-.i.{ #.i.{ #.i.{ #.-.{ #.#.{ -.#.{ { i.{ ",
"i.{ { i.{ -.#.{ i.{ -.i.{ #.i.{ 7.{ 7.{ 7.#.,.#.7.{ #.{ { #. .{ { i.#.{ i.{ { i.#.{ -.#.{ i.#.{ i.#.{ i.-.#.{ -.{ i.-.{ i.#.{ i.",
"{ #.-.{ i.{ { i.{ #.#.{ i.-.{ #.{ #.{ #.{  .7.{ { #.{ 7.7.,.#.7.-.{ -.{ #.-.#.-.{ i.{ i.-.{ -.{ { -.-.{ { i.i.{ -.{ #.i.{ -.-.{ ",
"-.#.-.#.#.-.-.#.{ -.-.{ { -.{ -.#.{ #.,.{ #.{ #.#.,.{ #.{ #.#.{ #.{ -.i.{ -.#.{ -.i.{ { #.{ -.i.{ #.#.{ #.{ { #.#.{ #.{ { #.#.{ ",
"i.{ { i.{ { i.{ i.{ #.i.{ #. .-.{ 7. .{ 7.{ 7.{  .{ 7.{ 7.{ { 7.{ i.#.{ i.{ { i.#.{ -.#.{ i.#.{ i.-.{ i.-.{ i.-.{ i.-.{ i.-.{ i.",
"{ { i.{ { i.{ { i.{ { i.{ { i.{ { i.{ { i.{ { i.{ { i.{ { i.{ {  . .-.{ [  .*.{ _ _ -. . . .{ i.{ G ,.7.7.7.7.{ ,.P Y { ,.7.,.P ",
"-.#.#.-.#.-.-.#.#.-.#.-.-.#.#.-.#.-.-.#.#.-.#.-.-.#.#.-.#.-.-.#._ _ _ _ _ _ _ { [ [  . . . .-.{ ,.7.7.7.,.{ 7.Y 7.,.7.{ P ,.7.,.",
"i.{ { i.i.{ { i.{ -.#.{ i.{ { i.i.{ { i.{ -.#.{ i.{ { i.i.{ { i. .#.7.{ #.#.#.#.#.#. .7.#.#.,.{ Y { 7.,.,.Y Y n ,.7.,.7.Y 7.,.P ",
"{ #.-.{ { #.-.{ i.{ { i.{ #.-.{ { #.-.{ i.{ { i.{ #.-.{ { #.-.{  .7.{ { { #.7.7.{ #.7.#.7.#.{ { { 7.,.P Y ,.{ Y P ,.P ,.{ { 7.,.",
"-.#.{ -.#.{ -.#.#.-.{ #.-.i.{ -.#.{ i.#.-.{ #.-.-.#.{ -.#.{ -.#.7.n n w l n n n ,.Y Y ,.,.n Y { 7.7.,.P ,.7.Y n ,.P ,.P ,.7.,.P ",
"i.{ i.{ { i.{ i.{ { i.-.#.{ { #.-.{ { -.#.i.{ { i.{ i.{ { i.{ i., a , , , , , , n n n Y Y Y Y t 7.7.Y n Y n Y n 7.,.7.,.P ,.7.,.",
"{ { i.#.-.i.{ { i.{ i.{ { i.i.{ { i.i.{ { i.{ i.{ { i.#.-.i.{ { w H n H H H w w w w H Y Y H Y Y Y { n n w 6 n s { 7.,.7.Y 7.,.P ",
"-.#.{ -.#.{ -.#.#.-.{ #.-.{ #.-.#.-.{ #.-.{ #.-.-.#.{ -.#.{ -.#.Y T 5.f.5.5.Y Y w w w l H Y H Y t , w , - - , , { Y P ,.{ { 7.,.",
"i.{ { i.{ #.i.{ { i.#.{ i.#.{ i.i.{ -.i.{ -.i.{ { i.-.{ i.{ { i.Y Y ,.Y ,.L 4.T ,.Y w q q + + + , - , l n n ,.7.,.P Y { ,.7.,.P ",
"{ #.-.{ i.-.{ #.-.{ -.{ { -.-.{ { #.#.{ { #.{ #.-.{ #.i.{ #.-.{ Y V Y Y L 4.L 4.4.,.Y V V V V Y n n n n Y ,.P ,.7.,.7.{ P ,.7.,.",
"-.#.-.#.{ -.{ -.#.{ -.i.{ #.#.{ { -.-.{ i.#.{ -.#.{ #.{ -.#.-.#.:.,.,.,.,.,.4.,.,.,.,.,.L 4.4.a.Y ,.7.7.,.Y 7.P ,.7.,.7.Y 7.,.P ",
"i.{ { i.{ #.i.{ { i.#.{ i.-.{ i.i.{ #.i.{ -.i.{ { i.-.{ i.{ { i.,.,.,.,.,.,.,.,.Y ,.{ { ,.,.,.,.5.7.7.7.7.,.7.n P ,.P ,.{ { 7.,.",
"{ { i.{ #.{ i.#.-.{ #.-.{ { i.{ { i.{ { #.-.{ #.-.i.{ -.-.#.{ { ^ { -._ ,.{ ) { _ { ^ ) ) ) ) E 7.n P 7.Y ,.7.7.,.P ,.P ,.7.,.P ",
"-.#.#.-.-.{ { -.#.i.{ { -.#.#.-.#.-.-.#.{ { i.-.#.{ { #.{ #.-.#.:.^ { ) :.) i.^ -.-.i.-.{ { E { n Y n Y ,.Y 7.7.7.,.7.,.P ,.7.,.",
"i.{ { i.{ i.i.{ { i.{ i.i.{ { i.i.{ { i.i.{ i.{ { i.i.{ { -.#.-.-.*.*.*.E *.^ ^ E -.*.*.-.*.^ ) Y n Y n n ,.,.{ { 7.,.7.Y 7.,.P ",
"{ #.-.{ #.-.{ #.-.{ #.-.{ #.-.{ { #.-.{ #.-.{ #.-.{ #.-.#.-.{ { -.E E *.*.-._ -.E E _ E *.*.E E Y ,.Y ,.Y n Y Y { Y P ,.{ { 7.,."
};
