/* XPM */
static char *_e6d1fe5b5cf4796eabb0a78063e0b8cLcH8nABPbGVOm9yy[] = {
/* columns rows colors chars-per-pixel */
"64 64 245 2 ",
"   c #1B1D1B",
".  c #381B0A",
"X  c #241D1C",
"o  c #2D1C1C",
"O  c #2B1A18",
"+  c #331D14",
"@  c #341C1C",
"#  c #391B1C",
"$  c #371918",
"%  c #2E1F0A",
"&  c #0E2E0A",
"*  c #19290B",
"=  c #0E3208",
"-  c #14330A",
";  c #0C2D1C",
":  c #0B2E15",
">  c #1B241C",
",  c #142C1B",
"<  c #182916",
"1  c #0C321B",
"2  c #073219",
"3  c #183618",
"4  c #282509",
"5  c #253608",
"6  c #373900",
"7  c #242315",
"8  c #2A2315",
"9  c #24231C",
"0  c #2B241C",
"q  c #272A18",
"w  c #32211B",
"e  c #352718",
"r  c #253718",
"t  c #363116",
"y  c #322807",
"u  c #1A1F24",
"i  c #2D1D22",
"p  c #281D28",
"a  c #331D22",
"s  c #3A1A22",
"d  c #381926",
"f  c #0C2D23",
"g  c #0C2C2B",
"h  c #092827",
"j  c #1A2322",
"k  c #122B24",
"l  c #14242C",
"z  c #1C242C",
"x  c #122B2C",
"c  c #172623",
"v  c #0B3327",
"b  c #163426",
"n  c #0C2B33",
"m  c #162932",
"M  c #0E3339",
"N  c #163636",
"B  c #232325",
"V  c #2C2223",
"C  c #22232A",
"Z  c #292727",
"A  c #322323",
"S  c #372827",
"D  c #293725",
"F  c #313433",
"G  c #421905",
"H  c #451816",
"J  c #400F13",
"K  c #482C19",
"L  c #471725",
"P  c #581B2C",
"I  c #541D32",
"U  c #5C1C34",
"Y  c #5C1A39",
"T  c #4B1B31",
"R  c #651634",
"E  c #6A1535",
"W  c #621A35",
"Q  c #69163A",
"!  c #67152E",
"~  c #48262A",
"^  c #54232B",
"/  c #463728",
"(  c #4C2434",
")  c #472836",
"_  c #542536",
"`  c #493936",
"'  c #523837",
"]  c #6D3839",
"[  c #7A3637",
"{  c #7F2E34",
"}  c #67381E",
"|  c #304611",
" . c #1B422F",
".. c #294727",
"X. c #314F31",
"o. c #3E6231",
"O. c #4F4814",
"+. c #4E4E37",
"@. c #6C5534",
"#. c #635C29",
"$. c #1B3E45",
"%. c #163F4B",
"&. c #1C3E4C",
"*. c #173C43",
"=. c #1C3F51",
"-. c #223D45",
";. c #223D4A",
":. c #2C3C4A",
">. c #4D3741",
",. c #6B3A43",
"<. c #753A42",
"1. c #772D48",
"2. c #1D4244",
"3. c #16434C",
"4. c #1A424C",
"5. c #1B4848",
"6. c #174251",
"7. c #194151",
"8. c #1B4251",
"9. c #234244",
"0. c #21424B",
"q. c #294948",
"w. c #204151",
"e. c #38594F",
"r. c #366842",
"t. c #535849",
"y. c #794547",
"u. c #704C51",
"i. c #556746",
"p. c #557454",
"a. c #4D694C",
"s. c #6B7457",
"d. c #536C62",
"f. c #717464",
"g. c #8C292E",
"h. c #93252D",
"j. c #97272D",
"k. c #8C2B34",
"l. c #882D37",
"z. c #942532",
"x. c #9A2533",
"c. c #932A33",
"v. c #992933",
"b. c #863337",
"n. c #93323B",
"m. c #971E2D",
"M. c #B77A3B",
"N. c #955F27",
"B. c #C77D2B",
"V. c #883A44",
"C. c #933C45",
"Z. c #924950",
"A. c #975D64",
"S. c #A35A62",
"D. c #B76F75",
"F. c #97755D",
"G. c #C0737D",
"H. c #728C59",
"J. c #64A65F",
"K. c #589169",
"L. c #70906D",
"P. c #5DAC64",
"I. c #5BAB68",
"U. c #5DB169",
"Y. c #63AA64",
"T. c #67A969",
"R. c #62B069",
"E. c #69A476",
"W. c #77A376",
"Q. c #7CBB78",
"!. c #72AC6A",
"~. c #BD8339",
"^. c #C68134",
"/. c #B68246",
"(. c #AE8354",
"). c #909373",
"_. c #89A97B",
"`. c #8AB47C",
"'. c #99A479",
"]. c #B0AE78",
"[. c #A38A5F",
"{. c #CCAB69",
"}. c #CCC278",
"|. c #749D80",
" X c #909885",
".X c #89A987",
"XX c #99A986",
"oX c #8BB584",
"OX c #97B68B",
"+X c #99B895",
"@X c #8FAE96",
"#X c #B5B988",
"$X c #A4BD9C",
"%X c #A7B996",
"&X c #AAB390",
"*X c #95B2A3",
"=X c #A7BDA3",
"-X c #BCB1A2",
";X c #B58185",
":X c #D18D93",
">X c #C4BD8F",
",X c #CC9EA2",
"<X c #CBBAAA",
"1X c #EFB6B6",
"2X c #8BC884",
"3X c #9CC685",
"4X c #94CB86",
"5X c #9DCA85",
"6X c #9EC68C",
"7X c #94CC8A",
"8X c #9DCA8B",
"9X c #94C687",
"0X c #9EC593",
"qX c #9BC796",
"wX c #91CA8D",
"eX c #A1CA86",
"rX c #A2C58D",
"tX c #A1CA8B",
"yX c #A7C587",
"uX c #BDC889",
"iX c #A2C493",
"pX c #A3C993",
"aX c #A3C39B",
"sX c #A8C598",
"dX c #BCC893",
"fX c #A2D088",
"gX c #9EC3A1",
"hX c #A3C3A2",
"jX c #A7C4A5",
"kX c #BAC6A7",
"lX c #A2C1B1",
"zX c #C5C986",
"xX c #C4CA8A",
"cX c #C9CA8C",
"vX c #C5C688",
"bX c #C4C694",
"nX c #C4C49C",
"mX c #C6C994",
"MX c #C6C4A6",
"NX c #E9C2BD",
"BX c #F7CDD0",
"VX c #FFE6EA",
"CX c #FFF3F7",
"ZX c #FFF1EF",
"AX c #FFDBE6",
/* pixels */
"8.4.&.4.&.4.4.4.4.4.6.6.4.=.4.=.=.&.4.4.-.2.4.4.4.4.6.0.l m u k c k u u u C z x $.3.5.4.=.8.=.8.&.4.4.8.8.8.8.8.8.3.3.3.3.3.4.4.",
"4.4.4.4.4.4.4.4.4.3.8.6.8.8.4.4.8.8.8.3.$.4.8.4.8.4.8.&.u u u c u     u u u u l *.&.4.4.=.8.8.4.4.4.4.8.8.8.=.8.4.3.4.4.4.4.4.4.",
"4.3.8.8.6.8.4.4.4.4.8.6.8.4.3.3.6.6.=.4.8.8.3.8.8.8.3.$.m u   X       X   u u z -.;.&.=.8.&.4.3.3.8.4.%.4.4.3.3.3.4.3.4.8.8.4.8.",
"3.3.6.6.8.8.4.3.4.4.=.=.8.4.3.3.6.6.6.8.8.3.4.4.=.0.-.-.p O O O O O O O $ a S p m m l *.&.4.2.3.3.8.8.8.4.3.3.3.3.3.4.4.=.=.8.8.",
"4.3.8.6.8.6.4.4.&.4.=.4.3.6.3.3.4.8.8.8.6.6.8.4.;.l c u o ( T P L L T I P U ( i   >   c n 0.2.4.3.8.8.8.4.3.2.2.3.4.=.=.=.=.8.8.",
"4.8.4.8.8.8.4.4.4.4.6.8.8.3.3.3.&.4.4.$.4.5.N v x c     o T I I P I U I Y I T o   > > c k $.9.&.4.8.3.8.4.3.4.4.4.8.=.8.8.8.4.&.",
"4.=.4.=.4.4.4.4.3.3.6.8.8.4.3.2.&.2.$.m ; ; b v b , c j u o i O $ o X X O o     u   , ; f q.9.$.$.5.3.4.w.&.;.&.;.4.8.6.8.&.4.4.",
"4.4.4.4.&.3.3.3.3.3.8.8.&.2.4.9.v v ; a.qXgXE.E.L.1 ; f b <   *       <   > , c , 3 L.+X@XL.2 f v 5.9.3.w.=.w.&.;.4.3.6.4.3.4.4.",
"4.3.4.8.4.3.3.3.3.3.8.3.4.2.v 1 ..E..XqXqX7XP.P.E.I.E.E.K.r. .3 : < 2 2 1 b K.T.W.`.pX0XpXiX0XwXK.2 v 5.&.=.w.=.4.3.3.3.3.5.3.4.",
"3.3.8.3.8.3.3.3.4.3.8.5.5.v N E.E.Q.0XfX4X2XU.P.I.U.I.I.U.E.T.E.E.E.E.E.E.E.Y.!.4X5XtX5XtX4X4XY.U.E.K.v M 0.&.8.3.3.3.3.3.3.0.4.",
"4.4.6.8.8.8.8.&.4.4.$.N v E.E.T.2X3X6X7X7XQ.P.U.P.P.U.I.U.I.U.I.R.P.T.T.T.2X7X7X5X5X5X5X4X2XY.U.U.U.E.|.v h 3.4.8.3.8.3.4.4.4.4.",
"8.4.3.8.3.6.8.8.0.9.v 2 E.E.T.Q.4XfX6X8X7X!.P.U.P.P.I.I.I.U.P.R.Y.`.2XOX8X4X4X5XfX5X5X5XQ.T.R.I.P.Y.T.E.E.2 v 5.4.8.6.6.4.3.4.&.",
"8.8.4.4.4.8.8.=.4.N 2 qXT.Y.Y.2X4X5XfXtX4X`.P.P.P.R.U.Y.R.Y.J.4X4X5X5X9X5X5XtX6X5XeXfX5XJ.!.T.T.T.J.Y.T.T.W.2 g ;.&.8.=.4.4.4.0.",
"w.&.&.4.8.4.=.0.e.f qXqX2X!.Y.2X8XeX5XeXfX4XR.R.Y.R.Y.J.Y.7X5XfXeXeX5X6XeX5XtXtXrXyXyXyX8X7XwX7XwX4X4X4X2XqXgXf N ;.&.&.4.&.4.3.",
"3.3.3.3.4.&.w.q.f lXqXiX5X5X8X8X6X5X5XeX5X4XY.Y.Y.!.2X7X4X5X5X5X3XeXeX6XtXiX$X'.| | | 6 r 3 o.8X8X8X5X5X8XqXhX*Xb m l M 9.3.4.8.",
"3.3.4.3.4.0.$.f p.p.H.rXeXtX5X8X5X5X5X5X5X5XR.Q.7X4X4X6X5X5X5X5XeX5XtXtXiXo.* 5 [.}.}.zX+.r 8X8X8XtX5X5XpXpX= : f t.@Xm g *.8.3.",
"4.4.&.4.8.&.q., aX3 * * | yX5X5XtX5X3XtXeX3X8X8X8X5X8X5X5X5X5X5X5XtX3XtXi.| }.}.zX{.O.5 +.6XtX5XtXtX6XpXa.& L.aX=Xc k g n n *.%.",
"4.0.$.M &.0.;  XaX0Xr L.).5 tX6XtXeX3X5XtXeX5X5XtXtX6X5X5X5XtX5XeX6X8Xo.5 uX{.O.6 5 H.pX8XtX5XtXtX6X0Xo.- aXiX+X: , d.9.&.=.%.%.",
"$.-.n n 8.*.f =X0XtX6Xr | H.| 6X5X5X5XtX5X5X5XeX5X3XeXtXtX8X6XtXeX5X8Xo.5 | | ).yXyXtX6X8XtXrXrX0X0X3 3 aXiXL.& aXp.x $.4.&.&.&.",
"9.h *Xg 0.$.; qX8X6XaXsX3XrX6X6X5X5X5X3XeX5X5X5XeXrXrXrXtXtX9X0XrXpXqX7XpXpX0XiXtXeX5X5XtX6XpXiXaX3 : qXsX`.= aXpXoXf &.3.3.4.&.",
"9.N lX; q.N 1 aXpX6XaX%XOXiXrXtXrXrXtX5XeXeX5X5XtXrX5X5XeXtX`...p.aXaXpXeX3XrXrXtXeX5X5X5XrXiXaX& 3 aXaXaXo.= iX0XoXf 9.4.4.4.;.",
"b d.jX;  .N  .qX3XtXX.- X.W.sXiXrXrXiXrXrXpXiX8X6XrXiXpX5X6XeXpXa.- - i.yXyXrXrXrXpX5XtX6XpXW.- p.aX0XpXL.D aXpX9XoX; $.4.4.=.4.",
", W.hX, 9.g  .pXpXOX= sXtXtXiXaXqX+X$Xa.i.a.i..XaXaXaXiXaXiXtXtX5XyX].y y 5 W.hXaXaXiXaXhX3 = pX0XiXqXE...pXoXtX6XoXf 0.4.8.8.=.",
"< @X=X: q.M b hX+X= rXiXrXsX..* < q 9 / ` / / 7 < 4 4 4 * +X%X&XpXeX{.{.{.s.4 & = - = = : X.qX0X6XpXL...aXqXpX6X6X|.f 4.4.%.=.8.",
", gXhX, 9.N k @X: W.rXsX@X7 H ] BXZXAX[ { V.BXZX<X[ [ y.&X> < p.aXiX{.{.{.].#XrXtXrXtX0XaXaXaXaXaX$X< < > q _.tX`..Xh 3.4.8.8.=.",
": lXqX& b b k , gXaX%Xt t.F.[ b.<.1XZ.g.z.k.Z.1XC.h.c.Z.CXVXu.+ 8 4 y G N.M.].XX%XyXrXsX'.i.7 4 < 7 O A t.9 sXOX_.@Xf 3.4.4.;.&.",
"; =XqXaX3 < & hXhX$XK y.ZX:Xl.h.j.h.h.j.x.v.k.k.v.z.v.l.AXD.l.l.b.[ 1XBX^ G . + e 8   9 w H ] ] VXZXZ.] ' 7 iX_..Xb N 4.8.3.4.0.",
"X.X.aXaXaXhXhXaXs.e ,.V.AXZ.g.j.j.j.j.j.m.x.x.x.x.x.z.v.n.k.g.j.h.c.A.VXS.<.<.<.<.,XCXZX] ] l.b.1X;X[ [ 8 %X`._..Xf q.&.4.8.4.4.",
"w.x K.=XjX$X@XB w ] S.V.V.z.h.h.h.v.h.h.x.x.x.z.x.m.z.x.z.c.h.z.j.g.g.c.g.c.g.b.l.l.:XV.<.V.l.k.b.[ y.8 t.OX_._.a.h 0.4.5.3.3.3.",
"0.4.b b b , k j ` A.ZXV.k.z.k.c.c.j.k.z.x.x.h.j.z.v.z.h.c.z.c.v.j.j.j.j.v.j.j.g.v.h.z.l.BXVX[ <.[ y.@ t XX_._._.x 0.2.4.4.8.3.3.",
"3.8.$.9.0.2.$.x c V VXV.k.z.:XS.k.c.C.l.z.z.j.h.C.l.c.c.h.h.g.n.c.g.z.v.m.z.C.b.g.j.n.b.ZXZXF.u.e 4 &XXX_..X Xb h &.4.3.8.8.3.3.",
"8.3.4.4.=.8.4.-.g c 9 ' [ [ VX,X[ C.AXD.l.l.l.D.AXV.l.l.k.b.b.BXG.b.l.l.l.Z.ZX:X[ [ b.^ O   7 7 MXkX_.).t.X.D c M 8.&.8.=.8.8.3.",
"4.4.4.=.3.8.4.0.g f.kXt y 4 4 + ' u.CX,X<.] ,.VXCXNX<.<.y.y.BXCXCXu.,.,.,.NX,XA . . y t nXnXMXMX-X).+.t 7 B B l 0.4.3.8.4.8.8.8.",
"4.8.4.8.6.8.4.-.k X.).-XkXkX-X&XS 0 9 + + + + + X 7 @ . . + 9 0 0 o @ a $ @ X XXMXMXMXMX>XbX'.O.t t w a a V B l 4.3.8.8.8.4.8.8.",
"3.3.8.4.8.6.4.&.x B 0 t.t.f.L.-XMXbX>XmXbXbX>XnX&X#X].#X>XbXbXnX<XMX XF.F.MX<X<X<XMXMX).+.e $ + 8 w w a V p Z z 2.3.3.4.4.4.=.8.",
"4.3.4.4.4.6.4.&.l z i d O f.t.+.+.>XnXbX#XcXcXvXcXcXxXcXcXbXbX>X/ +.+ w e e t t y / H e H a s @ @ o @ i a a C z ;.4.4.4.4.4.4.4.",
"8.6.8.4.6.3.3.&.l C o @ A S S ` +.' f.+ q &XmXxXcXcXbXbX'.).K / ~ @ o 9 B 0 8 w + w $ @ # w @ @ A a i a a a p C N 0.4.&.0.3.3.3.",
"6.8.8.8.3.4.8.&.-.> Z 7 0 X 9 9 d ) ) ` Z t &XvXvXmXuX).).~ ~ ^ ( d A V Z 7 7 e 0 a a $ # o @ a o o a a a a a C m ;.8.4.4.&.3.3.",
"4.4.4.3.4.=.=.0.g k & sX$XsX%XX.>.d p F ~ w ).'.#XbX'.).S ^ P U P L A V F %XXX< c B w a w @ V p a a @ @ @ @ A V z ;.8.8.w.4.3.3.",
"&.3.4.&.4.8.8.4.g , aXiX0XtXtX%XZ >.p d ( ^ q ).).'._.S u.P W E W I @ 0 OXsXsXiXX.q B 0 A 0 V V a s @ a @ $ @ V z :.8.=.8.8.3.3.",
"4.8.8.8.3.3.3.5.2 gXqXpX0XtXeXiXF F ) T d ) V  XXX). XA ) _ E E R I A D iX3XeXeXrXsXD 3 < f.B A a # # @ # $ # a C m w.8.8.=.8.6.",
"w.4.8.8.8.3.5.9., aXiX0X5XtXeXtX=X> s ( ( s ~ y K #.4 t # L _ W U _ t sX5X5XeX3XeX3XaXhX$X%X7 Z @ @ @ # $ # + 0 C m &.=.=.8.6.3.",
"&.4.8.8.8.&.5.9., aXpX5X5XtX3XtXiXr + ~ ) # . ~.~.~.^./.F.G H ) ) A aX8X5X5XeXeX5X5X5XpXsX9 Z o @ @ # a # $ # # p z ;.3.4.4.4.3.",
"&.4.4.8.&.4.2.9.F sXtX5X6X5XeX5XtX%X-X` ) H (.~.^.^.^.~.F.. w V q =XpX4X5X5X5X5X6X5X6X6XD > w @ @ @ s s # e # @ A C &.4.4.4.3.3.",
"0.8.3.3.8.8.4.9.D %X6X5X5X5XtX5XtXrX$XD ( J (.(./././.(.. p j D aXiX5X5X5XtXyXyXeX5XrX%X< V w @ # # # s s @ # @ V C 2.3.4.4.4.4.",
"=.3.6.6.4.4.3.-.u L.%XpXrXrXiX0X6XpX-XS ( I G G G G . . ( ) B =XiXtX5X5XtX3XeXtX8XpXaX< 9 A @ + # # s s s @ # @ i z 2.3.3.4.0.&.",
"8.=.6.3.4.4.&.-.z 9 +.q r =X$XqXqX=X0 ( T U ~ ( ~ ~ ~ ( T ( p D iXeX5XyXtXiXsXiXaXaX, Z i s $ # + # # s s a # a A C 9.3.6.4.4.&.",
"8.4.6.3.4.4.4.-.z C p A S A 0 q 0 +.T Y U L H G K H H H H ^ S 0 %XrXsXsXsX$Xs...3 < B S a s @ # # $ s d # s # s p p -.3.3.8.4.4.",
"8.6.8.4.4.2.4.:.z V s $ s P ^ P _ U W ! H @.M.M.N.N.^./.D.K ^ L a A S A A A A F V V i a # s # @ @ # @ # # s s @ i C -.4.5.4.4.4.",
"6.8.=.8.4.2.4.0.m C o L L ! E R E R R P H (.~.~.M.} N./.} ^ ! _ I >._ >._ _ ^ d i A a @ # # # @ w @ # # @ $ s @ p z -.4.3.4.4.4.",
"6.6.4.4.3.3.3.4.;.z A # Y R R Q E R U ^ e @.@.#.O.O.6 y H ^ R Q W U W W Y W P P a p a a @ # # # @ @ s # @ # @ a Z z 0.4.6.6.8.&.",
"4.6.4.4.3.3.6.6.&.u p L Y Q Q Q W U ( # e s.F.).MXkXkX9 ~ P W E ! E Q E Q E ! W d a s A w # # @ s s A w w 0 w B C l 0.8.8.=.=.8.",
"=.=.8.8.4.6.6.3.&.m d I ! R R U I d i q #XxXmXcXbXnXnXq A ) _ 1.Q E E E E ! ! ! I d @ w e $ # # @ s a 7 > < * > c n &.=.8.4.3.8.",
"=.8.=.8.6.3.6.3.;.:.p T I U ^ L # O t.&XdXuXzXzXvXbXmXMX< 0 S ^ P Y W Q W W E ! W I d $ $ # # @ a o 0 < jX$X@X@Xg m =.=.8.8.3.3.",
"4.4.4.8.4.3.6.4.&.:.u :.F 0 O q X.'.].xXxXxXcXzXcXcXcXvXbX#X4 7 X A _ >.( I W Q Q W I L s a @ @ Z > r sXiXoXOX.Xk $.&.8.8.8.3.3.",
"2.4.&.4.3.3.3.4.8.;.:.m z B f.XXXX].uXzXzXzXzXvXxXvXvXzXcXdXsX+XjXi.0 O V s _ Y Y W Y T d i 0 0 > 3 aXrXrXoX@Xf g 0.&.8.6.8.4.4.",
"4.4.=.8.6.6.3.3.8.&.0.;.x d.&XXX].mXcXxXxXvXxXxXxXzXxXxXuXyXsXpXiXpXiXsX%Xf.D S _ Y Y Y S 9 < < hXqXpX0XaX@Xk n ;.&.4.4.8.4.4.;.",
"3.6.8.=.8.4.8.3.8.&.0.3.2.k t.XX&XbXxXcXvXvXvXvXzXzXxXuXyXyXeXfXtXeXeXeXfXsXaXq a _ I ~ 0 %XaXaXpX0XpXqXr.; N ;.=.8.4.4.4.4.4.;.",
"3.3.4.=.4.&.4.=.8.4.&.0.$.;.l b L.dXbXuXcXcXcXcXxXzXxXuXyXtX8X7X4XfX6XtXeXtXtXsXD 4 e t %XiXpXtXpXpXX.f x 9.4.2.4.4.4.4.3.4.8.=.",
"3.4.8.8.=.4.8.=.8.3.3.3.4.8.;.n , X.OXdXmXmXbXbXmXxXmXbXyX6XqXwXpXtXpXiXrXtXtXiXjX=X%XjXaXpXpXsXH.1 f 0.$.3.4.3.4.3.4.4.3.3.6.8.",
"4.8.=.8.4.8.8.8.3.8.2.3.8.=.8.3.N k @XOXOX&XXXXXkXkXsXkXOX+XOX+XhXaXgXjXgXhXOX+X+X$XjXaXhXhX, ; g 9.2.4.4.4.4.3.4.6.4.4.3.3.5.3.",
"4.=.=.8.4.4.8.4.8.3.3.4.8.6.8.3.4.2.2 1 ; ; < b 3 3 < , , ; ; ; 1 : 1 1 1 2 ; < 1 1 , b b q.e.9.3.4.4.3.w.&.8.4.6.4.4.8.3.3.3.3.",
"3.4.8.6.3.4.4.4.3.4.3.3.8.8.&.3.&.3.4.2.$.$.9.9.2.9.9. . .9.-.0.2.2.4.2.4.2.$.9.2.5.2.2.9.4.3.4.4.4.3.4.&.w.&.3.3.4.4.=.8.8.3.4.",
"3.3.3.6.4.3.3.4.8.3.8.4.8.&.4.2.4.4.&.8.=.=.4.4.4.3.8.8.4.4.&.=.;.$.4.3.3.4.4.3.5.3.3.4.4.8.8.8.8.8.8.8.=.&.3.4.3.4.4.=.=.8.=.0."
};
