/* XPM */
static char * tahm_flip_xpm[] = {
"64 64 243 2",
"  	c None",
". 	c #1A424C",
"+ 	c #16434C",
"@ 	c #1B4251",
"# 	c #1C3E4C",
"$ 	c #1C3F51",
"% 	c #1B4848",
"& 	c #1B3E45",
"* 	c #122B2C",
"= 	c #1C242C",
"- 	c #22232A",
"; 	c #1A1F24",
"> 	c #122B24",
", 	c #172623",
"' 	c #162932",
") 	c #14242C",
"! 	c #21424B",
"~ 	c #174251",
"{ 	c #1D4244",
"] 	c #223D45",
"^ 	c #173C43",
"/ 	c #1B1D1B",
"( 	c #163F4B",
"_ 	c #223D4A",
": 	c #241D1C",
"< 	c #281D28",
"[ 	c #372827",
"} 	c #331D22",
"| 	c #371918",
"1 	c #2B1A18",
"2 	c #0C2B33",
"3 	c #1B241C",
"4 	c #2D1D22",
"5 	c #4C2434",
"6 	c #5C1C34",
"7 	c #581B2C",
"8 	c #541D32",
"9 	c #4B1B31",
"0 	c #471725",
"a 	c #2D1C1C",
"b 	c #234244",
"c 	c #5C1A39",
"d 	c #0B3327",
"e 	c #163636",
"f 	c #204151",
"g 	c #294948",
"h 	c #0C2D23",
"i 	c #0C2D1C",
"j 	c #142C1B",
"k 	c #1A2322",
"l 	c #163426",
"m 	c #073219",
"n 	c #70906D",
"o 	c #8FAE96",
"p 	c #99B895",
"q 	c #183618",
"r 	c #182916",
"s 	c #19290B",
"t 	c #0C321B",
"u 	c #69A476",
"v 	c #9EC3A1",
"w 	c #9BC796",
"x 	c #4D694C",
"y 	c #589169",
"z 	c #91CA8D",
"A 	c #9EC593",
"B 	c #A2C493",
"C 	c #A3C993",
"D 	c #8AB47C",
"E 	c #77A376",
"F 	c #67A969",
"G 	c #0B2E15",
"H 	c #1B422F",
"I 	c #366842",
"J 	c #5BAB68",
"K 	c #5DAC64",
"L 	c #94CC8A",
"M 	c #89A987",
"N 	c #294727",
"O 	c #0E3339",
"P 	c #5DB169",
"Q 	c #63AA64",
"R 	c #94CB86",
"S 	c #A1CA8B",
"T 	c #9DCA85",
"U 	c #72AC6A",
"V 	c #8BC884",
"W 	c #A2D088",
"X 	c #7CBB78",
"Y 	c #092827",
"Z 	c #749D80",
"` 	c #62B069",
" .	c #9EC68C",
"..	c #9CC685",
"+.	c #9DCA8B",
"@.	c #97B68B",
"#.	c #0C2C2B",
"$.	c #64A65F",
"%.	c #A1CA86",
"&.	c #94C687",
"*.	c #A7C587",
"=.	c #A2C58D",
"-.	c #38594F",
";.	c #95B2A3",
">.	c #A3C3A2",
",.	c #3E6231",
"'.	c #253718",
").	c #373900",
"!.	c #304611",
"~.	c #99A479",
"{.	c #A4BD9C",
"].	c #A2C1B1",
"^.	c #535849",
"/.	c #0E3208",
"(.	c #4E4E37",
"_.	c #C5C986",
":.	c #CCC278",
"<.	c #A38A5F",
"[.	c #253608",
"}.	c #728C59",
"|.	c #557454",
"1.	c #A7BDA3",
"2.	c #A3C39B",
"3.	c #0E2E0A",
"4.	c #4F4814",
"5.	c #CCAB69",
"6.	c #556746",
"7.	c #536C62",
"8.	c #14330A",
"9.	c #BDC889",
"0.	c #909373",
"a.	c #909885",
"b.	c #8BB584",
"c.	c #A8C598",
"d.	c #A7B996",
"e.	c #293725",
"f.	c #314F31",
"g.	c #A7C4A5",
"h.	c #322807",
"i.	c #B0AE78",
"j.	c #282509",
"k.	c #6B7457",
"l.	c #AAB390",
"m.	c #242315",
"n.	c #463728",
"o.	c #493936",
"p.	c #24231C",
"q.	c #272A18",
"r.	c #89A97B",
"s.	c #B5B988",
"t.	c #794547",
"u.	c #7A3637",
"v.	c #CBBAAA",
"w.	c #FFF1EF",
"x.	c #F7CDD0",
"y.	c #883A44",
"z.	c #7F2E34",
"A.	c #FFDBE6",
"B.	c #6D3839",
"C.	c #451816",
"D.	c #322323",
"E.	c #99A986",
"F.	c #B77A3B",
"G.	c #955F27",
"H.	c #421905",
"I.	c #2A2315",
"J.	c #331D14",
"K.	c #704C51",
"L.	c #FFE6EA",
"M.	c #FFF3F7",
"N.	c #924950",
"O.	c #932A33",
"P.	c #93252D",
"Q.	c #933C45",
"R.	c #EFB6B6",
"S.	c #8C2B34",
"T.	c #942532",
"U.	c #8C292E",
"V.	c #753A42",
"W.	c #863337",
"X.	c #97755D",
"Y.	c #363116",
"Z.	c #523837",
"`.	c #32211B",
" +	c #352718",
".+	c #381B0A",
"++	c #54232B",
"@+	c #882D37",
"#+	c #B76F75",
"$+	c #992933",
"%+	c #9A2533",
"&+	c #97272D",
"*+	c #D18D93",
"=+	c #482C19",
"-+	c #B58185",
";+	c #CC9EA2",
">+	c #A35A62",
",+	c #975D64",
"'+	c #93323B",
")+	c #971E2D",
"!+	c #6B3A43",
"~+	c #232325",
"{+	c #341C1C",
"]+	c #2C2223",
"^+	c #BAC6A7",
"/+	c #C6C4A6",
"(+	c #C0737D",
"_+	c #BCB1A2",
":+	c #C4C49C",
"<+	c #E9C2BD",
"[+	c #717464",
"}+	c #C4C694",
"|+	c #C4BD8F",
"1+	c #2B241C",
"2+	c #292727",
"3+	c #C6C994",
"4+	c #3A1A22",
"5+	c #C9CA8C",
"6+	c #C4CA8A",
"7+	c #C5C688",
"8+	c #381926",
"9+	c #391B1C",
"0+	c #48262A",
"a+	c #472836",
"b+	c #313433",
"c+	c #4D3741",
"d+	c #2C3C4A",
"e+	c #621A35",
"f+	c #6A1535",
"g+	c #651634",
"h+	c #542536",
"i+	c #635C29",
"j+	c #B68246",
"k+	c #C68134",
"l+	c #BD8339",
"m+	c #AE8354",
"n+	c #400F13",
"o+	c #6C5534",
"p+	c #67152E",
"q+	c #67381E",
"r+	c #69163A",
"s+	c #772D48",
"t+	c #BCC893",
". . + + + + + @ @ @ @ @ @ . . # @ $ @ $ . % + & * = - ; ; ; > , > ; ' ) ! ~ . . . . { ] . . # $ $ . $ . ~ ~ . . . . . # . # . @ ",
". . . . . . + . @ $ @ @ @ . . . . @ @ $ . . # ^ ) ; ; ; ; / / ; , ; ; ; # @ . @ . @ . & + @ @ @ . . @ @ ~ @ + . . . . . . . . . ",
"@ . @ @ . + . + + + . . ( . @ + + . # @ $ # _ ] = ; ; / : / / / : / ; ' & + @ @ @ + @ @ . $ ~ ~ + + . @ ~ @ . . . . @ ~ @ @ + . ",
"@ @ $ $ . . + + + + + . @ @ @ + + { . # ^ ) ' ' < [ } | 1 1 1 1 1 1 1 < ] ] ! $ . . + @ @ ~ ~ ~ + + . @ $ $ . . + . @ @ ~ ~ + + ",
"@ @ $ $ $ $ . + { { + . @ @ @ + . { ! 2 , / 3 / 4 5 6 7 8 9 0 0 7 9 5 a ; , ) _ . @ ~ ~ @ @ @ . + + ~ + . $ . # . . ~ @ ~ @ + . ",
"# . @ @ @ $ @ . . . + . @ + @ . # b & > , 3 3 / a 9 8 c 8 6 8 7 8 8 9 a / / , * d e % . & . . # + + + @ @ ~ . . . . @ @ @ . @ . ",
". . # @ ~ @ . _ # _ # f . + % & & b g h i j / ; / / a 1 : : a | 1 4 a ; k , j l d l i i ' & { # { + . @ @ ~ + + . . . . $ . $ . ",
". . + . ~ + . _ # f $ f + b % d h m n o p n q j , j 3 / r / / / s / r l h i t n u u v w x i d d b . { # @ @ + + + + + # . . . . ",
". + % + + + + . $ f $ # % d m y z A B C A C D E F y l t m m r G q H I y u u J u K K L w w M u N t d { . + @ + + + + + . @ . + . ",
". ! + + + + + + @ # ! O d y u P Q R R S T S T R U Q u u u u u u u F u P J J P J K P V R W A X u u e d % % @ + . + + + @ + @ + + ",
". . . . + @ + @ . + Y d Z u P P P Q V R T T T T L L V F F F K ` J P J P J P K K P K X L L  ...V F u u d e & . . # @ @ @ @ ~ . . ",
"# . + . ~ ~ @ . % d m u u F Q K J ` F X T T T W T R R +.@.V D Q ` K P J J J K K P K U L +. .W R X F u u m d b ! @ @ ~ + @ + . @ ",
"! . . . $ @ # _ #.m E F F Q $.F F F U $.T W %.T  .S T T &.T T R R $.Q ` Q P ` K K K D R S W T R V Q Q F w m e . $ @ @ . . . @ @ ",
"+ . # . # # _ e h v w V R R R z L z L +.*.*.*.=.S S T %. .T %.%.W T L Q $.Q ` Q ` ` R W %.T %.+.V Q U V w w h -.! $ . @ . # # f ",
"@ . + b O ) ' l ;.>.w +.T T +.+.+.,.q '.).!.!.!.~.{.B S  .%.%...T T T R L V U Q Q Q R T %.T T  .+.+.T T B w ].h g f # . + + + + ",
"+ @ ^ #.' o ^.h G /.C C T T S +.+.+.'.(._.:.:.<.[.s ,.B S S T %.T T T T  .R R L X ` T T T T T T +.T S %.=.}.|.|.h & ! . + . + + ",
"( ^ 2 2 #.> , 1.2.n 3.x C  .S S T S  .(.[.4.5._.:.:.!.6.S ..S T T T T T T +.T +.+.+...%.S ..T S T T *.!.s s q 2.j g # @ . # . . ",
"( ( $ # b 7.j G p B 2.8.,.A  .S S T S +.C }.[.).4.5.9.[.,.+. .%.T S T T T  .S S T T %.S T ..%.S  .S [.0.n '.A 2.a.i ! # O & ! . ",
"# # # . & * |.2.3.n B 2.q q A A =.=.S +. .S *.*.0.!.!.[.,.+.T %.S  .+.S S %...T %.T T T S T T T  .!.}.!.'. .S A 1.h ^ @ 2 2 ] & ",
"# . + + # h b.C 2./.D c.w G q 2.B C  .S T T %.S B A C C L w C =.A &.S S =.=.=.%.T T T %...T T T  . .=...c.2. .+.w i & ! #.;.Y b ",
"_ . . . b h b.A B /.,.2.2.2.q 3.2.B =.T T T %.S =.=...%.C 2.2.|.N D S %.T T =.S T T %.%.T S =.=.S =.B @.d.2. .C 2.t e g i ].e b ",
". $ . . & i b.&.C 2.e.n C A 2.|.8.E C  .S T C =.=.=.*.*.6.8.8.x C %. .T C B =. .+.B C =.=.B =.=.B c.E f.8.f.S ..w H e H i g.7.l ",
"$ @ @ . ! h b. .S b.C N u w B A C /.q >.2.B 2.2.>.E [.h.h.i.*.T S S B 2.B 2.2.2.M 6.x 6.x {.p w 2.B S S c./.@.C C H #.b j >.E j ",
"@ $ ( . . h Z  . .C w 2.N n C  .A w f.G /./.8./.3.j.k.5.5.5.%.C l.d.p s j.j.j.r m.n.n.o.n.p.q.r s N c.=.B =./.p >.l O g G 1.o r ",
"$ @ @ . + Y M D S r.q.3 r r {.2.2.2.2.2.A S =.S =.s.i.5.5.5.B 2.|.r 3 l.t.u.u.v.w.x.y.z.u.A.w.x.B.C.m.o c.=.E G o > e b j >.v j ",
"# _ . . + h o r.@.c.p.^.D.1 m.r j.m.6.~.c.=.*.d.E.i.F.G.H.h.j.I.J.K.L.M.N.O.P.Q.R.N.S.T.U.N.R.V.W.u.X.^.Y.d.2.v j > l l 3.w ].G ",
"! . + @ . e l M r.B m.Z.B.N.w.L.B.B.C.`.p./ I. +J..+H.++x.R.u.W.@+@+#+A.@+$+T.$+S.S.$+%+&+P.P.&+P.@+*+w.t.=+{.>.>.3.r q 2.w 1.i ",
". . @ . # g h M r.D d.I.u.u.-+R.W.@+B.B.w.M.;+V.V.V.V.>+L.,+O.P.&+U.S.'+$+T.%+%+%+%+%+)+&+&+&+&+&+U.N.A.y.!+ +k.2.>.>.2.2.2.f.f.",
"+ + + % . ! Y x r.r.@.^.I.t.u.W.S.@+y.V.y.*+@+@+W.U.O.U.O.U.U.&+T.P.O.T.%+T.)+%+T.%+%+%+P.P.$+P.P.P.T.y.y.>+B.`.~+o {.g.1.y * f ",
"+ + @ . . { ! * r.r.r.E.Y.{+t.u.V.u.L.x.@+T.P.$+U.&+&+$+&+&+&+&+$+O.T.O.P.T.$+T.&+P.%+%+T.S.&+O.O.S.T.S.y.w.,+o.k > j l l l . ! ",
"+ + @ @ + . # Y l a.M r.E.l.j. +K.X.w.w.W.'+&+U.W.Q.T.)+$+T.U.O.'+U.P.P.O.O.@+Q.P.&+T.T.@+Q.O.S.>+*+T.S.y.L.]+, * & { ! b & @ + ",
"+ @ @ $ @ # @ O , e.f.^.0.r.^+/+m.m./ 1 ++W.u.u.*+w.N.@+@+@+W.(+x.W.W.S.@+@+y.A.#+@+@+@+#+A.Q.u.;+L.u.u.Z.p., #.] . @ $ . . + @ ",
"@ @ @ . @ + . ! ) ~+~+m.Y.(.0._+/+/+:+:+Y.h..+.+D.;+<+!+!+!+K.M.M.x.t.t.V.V.<+M.L.!+B.V.;+M.K.Z.J.j.j.h.Y.^+[+#.! . @ + $ . . . ",
"@ @ . @ @ @ + . ) ~+]+} } `.Y.Y.4.~.}+|+/+/+/+/+E.: {+| } {+a 1+1+p.J..+.+{+m.: J.J.J.J.J.p.1+[ l._+^+^+_+0.f.> ] . @ ~ @ . @ . ",
"@ $ . . . + + { = 2+< ]+} `.`.I.J.|  +(.0./+/+v.v.v./+X.X.a./+v.:+}+}+|+s.i.s.l.:+|+}+}+3+|+}+/+_+n [+^.^.1+~+* # . ~ @ . @ + + ",
". . . . . . . _ = - } } 4 {+a {+{+4+} C. +C.n.h.Y.Y. + +`.J.(.n.|+}+}+5+5+6+5+5+7+5+5+s.}+:+|+(.(.^.[+1 8+4 = ) # . ~ . . . + . ",
"+ + + ! # . ! e - < } } } 4 } D.{+{+`.9+{+| `.J.`.I.1+~+p.a {+0+n.=+0.~.}+}+5+5+6+3+l.q.J.[+Z.(.o.[ [ D.{+a - ) # + + ~ . @ ~ @ ",
"+ + # . . @ _ ' - } } } } } a a } {+a 9+| } } 1+ +m.m.2+]+D.8+5 ++0+0+0.0.9.3+7+7+l.Y.2+o.a+a+8+p.p.: 1+m.2+3 ] # @ . + @ @ @ ~ ",
"+ + . f @ @ _ = ]+D.{+{+{+{+} } < ]+{+`.} `.~+, r E.d.b+]+D.0 7 6 7 ++[ 0.~.}+s.~.0.`.0+b+< 8+c+f.d.c.{.c.3.> #.! $ $ . + . . . ",
"+ + @ @ $ @ d+= ]+{+| {+} {+4+} ]+]+1+D.1+~+q.f.B c.c.@.1+{+8 e+f+e+7 K.[ r.~.0.0.q.++5 8+< c+2+d.S S A B 2.j #.. @ @ . # . + # ",
"~ @ $ @ @ f ' - } 9+| 9+{+9+9+} D.~+[+r q e.c.=.%.%...B e.D.8 g+f+f+h+a+D.a.0.E.a.]+a+8+9 a+b+b+B %.S A C w v m % + + + @ @ @ . ",
"+ ~ @ $ $ # ' - 1+J.9+| 9+{+{+{+2+m.d.{.>.2...%...%.T T c.Y.h+6 e+h+0 9+Y.j.i+=+h.0+4+5 5 4+3 1.S %.S T A B 2.j b % + @ @ @ . f ",
"+ . . . + _ = < 9+9+| 9+} 9+{+{+a 2+p.c.C T T T %.%.T T +.2.D.a+a+C.H.X.j+k+l+l+l+.+9+a+0+J.'.B S ..S T T C 2.j b % # @ @ @ . # ",
"+ + . . . # - D.{+9+ +9+4+4+{+{+{+`.3 e. . .T  .T T T T R C 1.q.]+`..+X.l+k+k+k+l+m+C.a+o._+d.S T %.T  .T S c.b+b { . # @ . . # ",
". . . . + { - ]+{+9+{+4+4+9+9+9+{+`.]+r d.=.T %.*.*.S T T T B 2.e.k < .+m+j+j+j+m+m+n+5 e.{.=.S T S T T T  .d.e.b . @ @ + + @ ! ",
"# ! . + + { = 4 {+9+{+4+4+4+9+9+J.{+D.p.r 2.C +.S %...S T T S B 1.~+a+5 .+.+H.H.H.H.8 5 [ _+C  .A B =.=.C d.n ; ] + . . ~ ~ + $ ",
"# . . ~ + b - D.} 9+} 4+4+9+9+J.9+| 4+4 2+j 2.2.B c.B S *.T %.B e.< 5 9 5 0+0+0+5 0+6 9 5 1+1.w w {.1.'.q.(.p.= ] # . . + ~ $ @ ",
". . @ + + ] < < 4+9+4+9+8+4+| 9+9+{+4+} [ ~+r q N k.{.c.c.c.=.d.1+[ ++C.C.C.C.=+H.C.0 6 c 9 (.1+q.1+D.[ D.< - = ] . . . + ~ . @ ",
". . . % . ] - 4 {+4+4+9+9+{+9+{+{+9+4+9+} 4 ]+]+b+D.D.D.D.[ D.} 0 ++=+#+j+k+G.G.F.F.o+C.p+e+6 h+7 ++7 4+| 4+]+= d+. { . . @ ~ @ ",
". . . + . ] = < {+4+| {+9+9+{+`.{+9+9+9+{+} D.4 8+++h+h+c+h+c+8 h+p+++q+j+G.q+F.l+l+m+C.7 g+g+f+g+f+p+0 0 a - ' ! . { . @ $ @ ~ ",
"# @ ~ ~ . ! = 2+} {+9+{+9+4+{+{+9+9+9+{+} } < } 7 7 e+c e+e+6 e+r+g+++C.h.).4.4.i+o+o+ +++6 g+f+r+g+g+c 9+D.= _ . + + + . . ~ ~ ",
"@ $ $ @ @ ! ) - ~+`.1+`.`.D.4+4+{+9+9+`.D.4+} 8+e+p+f+r+f+r+f+p+f+e+7 0+p.^+^+/+0.X.k. +9+5 6 e+r+r+r+c 0 < ; # ~ ~ + + . . ~ . ",
"@ + . @ $ # 2 , 3 s r 3 m.} 4+{+9+9+|  +`.{+8+8 p+p+p+f+f+f+f+r+s+h+a+D.q.:+:+}+5+3+6+s.q.4 8+8 6 g+g+p+8 8+' # + ~ ~ . @ @ $ $ ",
"+ + @ @ $ $ ' #.o o {.g.r 1+a } {+9+9+| | 8+8 e+p+f+e+e+r+e+c 7 ++[ 1+r /+3+}+7+_._.9.t+l.^.1 9+0 ++6 8 9 < d+_ + ~ + ~ @ $ @ $ ",
"+ + @ @ @ # & > M @.b.B c.'.3 2+{+{+} 4+0 8 e+r+r+e+8 5 c+h+D.: m.j.s.}+7+5+5+5+_.5+6+6+6+i.~.f.q.1 1+b+d+; d+# . ~ + . @ . . . ",
". . @ ~ @ # ! #.h o b.=.=.2.q 3 1+1+4 8+9 c e+c c h+4+]+1 1+6.g.p c.t+5+_.7+7+6+7+_._._._.9.i.E.E.[+~+= ' d+_ @ . + + + . # . { ",
"_ . . @ . . # _ 2 > o 2.A C w >.r r p.[ c c c h+[ e.[+d.c.B C B C c.*.9.6+6+_.6+6+6+7+6+6+5+3+i.E.l.7.* _ ! # @ + + ~ ~ @ $ . . ",
"_ . . . . . @ $ _ e i I w C A C 2.2.d.1+0+8 h+} q.2.c.W %.%.%.S W %.*.*.9.6+_._.7+7+7+7+5+6+}+l.E.^.> { + ! # @ + @ . @ $ @ ~ + ",
"$ @ . + . . . . { . b * h f.C C S C B d.Y. +j.e.c.S S %.S  .W R L +.S *.9.6+_.6+5+5+5+5+9.}+t+n l ) _ & ! # . @ $ . # . $ . + + ",
"@ ~ + + . . + . + . + & ! h t }.c.C C 2.g.d.1.g.B S S =.B C S C z w  .*.}+3+6+3+}+}+3+3+t+@.f.j 2 _ @ . + + + @ $ @ . $ @ @ . + ",
"+ % + + . . ~ . + . . . . { b #.i j >.>.2.g.{.p p @.>.v g.v 2.>.p @.p @.^+c.^+^+E.E.l.@.@.o > e + @ $ @ + { @ + @ @ @ . @ $ @ . ",
"+ + + + @ . . ~ . @ # f + . . + b -.g l l j t t r i m t t t G t i i i j j r q q l r i i t m { . + @ ~ @ . + + @ . @ . . @ $ $ . ",
". + @ @ $ . . + + # f # . + . . . + . b { { % { b & { . { . { { ! ] b H H b b { b b & & { . + # + # @ @ + + . + . . . + ~ @ . + ",
"! $ @ $ $ . . + . + # $ @ @ @ @ @ @ @ . . + + % + . . + + . & _ $ # . . @ @ + . . . $ $ @ # . . { . # @ . @ + @ . + + . ~ + + + "};
